<svg width="30" height="30" viewBox="0 0 30 30" fill="none" xmlns="http://www.w3.org/2000/svg">
<path d="M4.6875 15.9374L23.3902 15.9374L16.2286 22.7586C15.8536 23.1158 15.8391 23.7093 16.1962 24.0843C16.553 24.4588 17.1464 24.4738 17.5219 24.1166L25.7006 16.326C26.0545 15.9716 26.25 15.501 26.25 14.9999C26.25 14.4993 26.0545 14.0282 25.6842 13.6583L17.5214 5.88364C17.34 5.71068 17.1075 5.62489 16.875 5.62489C16.6275 5.62489 16.38 5.72239 16.1958 5.91599C15.8386 6.29099 15.8531 6.88396 16.2281 7.24115L23.4197 14.0624L4.6875 14.0624C4.17 14.0624 3.75 14.4824 3.75 14.9999C3.75 15.5174 4.17 15.9374 4.6875 15.9374Z" fill="#0F927C"/>
</svg>
