<svg width="25" height="25" viewBox="0 0 25 25" fill="none" xmlns="http://www.w3.org/2000/svg">
<path d="M12.5 19.7021C13.1742 19.7021 13.7207 19.1556 13.7207 18.4814C13.7207 17.8073 13.1742 17.2607 12.5 17.2607C11.8258 17.2607 11.2793 17.8073 11.2793 18.4814C11.2793 19.1556 11.8258 19.7021 12.5 19.7021Z" fill="#0F927C"/>
<path d="M12.5 0C5.5916 0 0 5.59067 0 12.5C0 19.4084 5.59067 25 12.5 25C19.4084 25 25 19.4093 25 12.5C25 5.5916 19.4093 0 12.5 0ZM12.5 23.0469C6.67104 23.0469 1.95312 18.3297 1.95312 12.5C1.95312 6.67104 6.67026 1.95312 12.5 1.95312C18.329 1.95312 23.0469 6.67026 23.0469 12.5C23.0469 18.329 18.3297 23.0469 12.5 23.0469Z" fill="#0F927C"/>
<path d="M12.5 6.27441C10.3461 6.27441 8.59375 8.02676 8.59375 10.1807C8.59375 10.72 9.03096 11.1572 9.57031 11.1572C10.1097 11.1572 10.5469 10.72 10.5469 10.1807C10.5469 9.10371 11.423 8.22754 12.5 8.22754C13.577 8.22754 14.4531 9.10371 14.4531 10.1807C14.4531 11.2576 13.577 12.1338 12.5 12.1338C11.9606 12.1338 11.5234 12.571 11.5234 13.1104V15.5518C11.5234 16.0911 11.9606 16.5283 12.5 16.5283C13.0394 16.5283 13.4766 16.0911 13.4766 15.5518V13.9633C15.1595 13.5286 16.4062 11.9975 16.4062 10.1807C16.4062 8.02676 14.6539 6.27441 12.5 6.27441Z" fill="#0F927C"/>
</svg>
