<svg width="22" height="21" viewBox="0 0 22 21" fill="none" xmlns="http://www.w3.org/2000/svg">
<path d="M9.28254 0C4.1642 0 0 4.15281 0 9.25721C0 14.3616 4.16424 18.5144 9.28254 18.5144C14.4008 18.5144 18.5651 14.3616 18.5651 9.25721C18.5651 4.15281 14.4009 0 9.28254 0ZM9.28254 16.9927C5.00318 16.9927 1.52173 13.5223 1.52173 9.25717C1.52173 4.99175 5.00318 1.52169 9.28254 1.52169C13.5619 1.52169 17.0433 4.99175 17.0433 9.25717C17.0434 13.5223 13.5619 16.9927 9.28254 16.9927Z" fill="#333333"/>
<path d="M20.8261 19.7001L15.8297 14.7292C15.5317 14.4329 15.0501 14.4342 14.7536 14.732C14.4573 15.03 14.4586 15.5116 14.7564 15.8081L19.7527 20.7791C19.9014 20.9267 20.0951 21.0005 20.2894 21.0005C20.4849 21.0005 20.6802 20.9256 20.8289 20.7763C21.1251 20.4782 21.1238 19.9966 20.8261 19.7001Z" fill="#333333"/>
</svg>
