<svg width="24" height="24" viewBox="0 0 24 24" fill="none" xmlns="http://www.w3.org/2000/svg">
<path d="M21.6206 20.6622L17.1066 15.9194C18.5753 14.1735 19.38 11.9768 19.38 9.68999C19.38 4.34701 15.033 0 9.68999 0C4.34701 0 0 4.34701 0 9.68999C0 15.033 4.34701 19.38 9.68999 19.38C11.6958 19.38 13.6073 18.775 15.2415 17.6265L19.7989 22.4144C20.0395 22.6642 20.363 22.802 20.7098 22.802C21.038 22.802 21.3493 22.6768 21.5856 22.4493C22.0878 21.9661 22.1039 21.1648 21.6206 20.6622ZM9.68999 2.52782C13.6393 2.52782 16.8522 5.74069 16.8522 9.68999C16.8522 13.6393 13.6393 16.8522 9.68999 16.8522C5.74069 16.8522 2.52782 13.6393 2.52782 9.68999C2.52782 5.74069 5.74069 2.52782 9.68999 2.52782Z" fill="#333333"/>
</svg>
