<svg width="122" height="122" viewBox="0 0 122 122" fill="none" xmlns="http://www.w3.org/2000/svg">
<circle cx="61" cy="61" r="60" stroke="#E0DFDF" stroke-width="2"/>
<path d="M84.2772 71.152C78.7375 71.152 73.4611 69.9464 68.5967 67.5695C68.1389 67.3406 67.6124 67.3139 67.1355 67.4818C66.6548 67.6497 66.2618 68.0007 66.0405 68.4547L63.0418 74.662C55.2816 70.3318 48.8568 63.9108 44.5304 56.1507L50.7339 53.1443C51.1918 52.923 51.5389 52.53 51.7068 52.0493C51.8709 51.5724 51.8403 51.0459 51.6152 50.5881C49.2384 45.7237 48.0328 40.4473 48.0328 34.9076C48.0328 33.8546 47.1782 33 46.1252 33H34.6796C33.6266 33 29.9999 36.6266 29.9999 37.6796C29.9999 66.08 53.1048 89.1849 81.5052 89.1849C82.5582 89.1849 86.1848 85.5582 86.1848 84.5052V73.0596C86.1848 72.0066 85.3302 71.152 84.2772 71.152Z" fill="#E0DFDF"/>
<path d="M64.2933 46.2607C63.2403 46.2607 62.3857 47.1153 62.3857 48.1683C62.3857 49.2213 63.2403 50.0759 64.2933 50.0759C68.5015 50.0759 71.9237 53.4982 71.9237 57.7063C71.9237 58.7593 72.7784 59.614 73.8314 59.614C74.8843 59.614 75.739 58.7593 75.739 57.7063C75.739 51.396 70.6037 46.2607 64.2933 46.2607Z" fill="#E0DFDF"/>
<path d="M64.2933 38.6306C63.2403 38.6306 62.3857 39.4852 62.3857 40.5382C62.3857 41.5912 63.2403 42.4458 64.2933 42.4458C72.7097 42.4458 79.5542 49.2903 79.5542 57.7066C79.5542 58.7596 80.4088 59.6142 81.4618 59.6142C82.5147 59.6142 83.3694 58.7596 83.3694 57.7066C83.3694 47.1881 74.8119 38.6306 64.2933 38.6306Z" fill="#E0DFDF"/>
<path d="M64.2933 31C63.2403 31 62.3857 31.8546 62.3857 32.9076C62.3857 33.9606 63.2403 34.8152 64.2933 34.8152C76.9178 34.8152 87.1846 45.0819 87.1846 57.7064C87.1846 58.7594 88.0392 59.614 89.0922 59.614C90.1452 59.614 90.9998 58.7594 90.9998 57.7064C90.9998 42.9797 79.0162 31 64.2933 31Z" fill="#E0DFDF"/>
</svg>
