<svg width="20" height="20" viewBox="0 0 20 20" fill="none" xmlns="http://www.w3.org/2000/svg">
<g clip-path="url(#clip0)">
<path d="M19.9801 5.88005C19.9332 4.81738 19.7614 4.0868 19.5152 3.45374C19.2612 2.78176 18.8705 2.18014 18.3587 1.68002C17.8585 1.1721 17.253 0.777435 16.5888 0.527447C15.952 0.281274 15.2253 0.109427 14.1626 0.0625732C13.092 0.0117516 12.7521 0 10.0367 0C7.32136 0 6.98148 0.0117516 5.91484 0.0586052C4.85216 0.105459 4.12158 0.277459 3.48868 0.523479C2.81655 0.777435 2.21493 1.16814 1.7148 1.68002C1.20689 2.18014 0.812377 2.78573 0.562236 3.44992C0.316064 4.0868 0.144217 4.81341 0.0973632 5.87609C0.0465416 6.9467 0.03479 7.28658 0.03479 10.002C0.03479 12.7173 0.0465416 13.0572 0.0933952 14.1239C0.140249 15.1865 0.312249 15.9171 0.558421 16.5502C0.812377 17.2221 1.20689 17.8238 1.7148 18.3239C2.21493 18.8318 2.82052 19.2265 3.48471 19.4765C4.12158 19.7226 4.8482 19.8945 5.91103 19.9413C6.97752 19.9883 7.31755 19.9999 10.0329 19.9999C12.7483 19.9999 13.0882 19.9883 14.1548 19.9413C15.2175 19.8945 15.9481 19.7226 16.581 19.4765C17.9251 18.9568 18.9878 17.8941 19.5074 16.5502C19.7534 15.9133 19.9254 15.1865 19.9723 14.1239C20.0191 13.0572 20.0309 12.7173 20.0309 10.002C20.0309 7.28658 20.0269 6.9467 19.9801 5.88005ZM18.179 14.0457C18.136 15.0225 17.9719 15.5499 17.8352 15.9015C17.4991 16.7728 16.8076 17.4643 15.9363 17.8004C15.5847 17.9372 15.0534 18.1012 14.0805 18.1441C13.0256 18.1911 12.7092 18.2027 10.0407 18.2027C7.37219 18.2027 7.05184 18.1911 6.00076 18.1441C5.02401 18.1012 4.49657 17.9372 4.14493 17.8004C3.71135 17.6402 3.31668 17.3862 2.99633 17.0541C2.66424 16.7298 2.41028 16.3391 2.25003 15.9055C2.11329 15.5539 1.94923 15.0225 1.90634 14.0497C1.85933 12.9948 1.84773 12.6783 1.84773 10.0097C1.84773 7.34122 1.85933 7.02087 1.90634 5.96995C1.94923 4.99319 2.11329 4.46575 2.25003 4.11412C2.41028 3.68038 2.66424 3.28586 3.0003 2.96536C3.32446 2.63327 3.71516 2.37931 4.1489 2.21921C4.50053 2.08247 5.03195 1.9184 6.00473 1.87537C7.05963 1.82851 7.37615 1.81676 10.0445 1.81676C12.717 1.81676 13.0334 1.82851 14.0845 1.87537C15.0612 1.9184 15.5887 2.08247 15.9403 2.21921C16.3739 2.37931 16.7685 2.63327 17.0889 2.96536C17.421 3.28967 17.6749 3.68038 17.8352 4.11412C17.9719 4.46575 18.136 4.99701 18.179 5.96995C18.2259 7.02484 18.2376 7.34122 18.2376 10.0097C18.2376 12.6783 18.2259 12.9908 18.179 14.0457Z" fill="black"/>
<path d="M10.0373 4.86426C7.20086 4.86426 4.89954 7.16543 4.89954 10.002C4.89954 12.8385 7.20086 15.1397 10.0373 15.1397C12.8738 15.1397 15.175 12.8385 15.175 10.002C15.175 7.16543 12.8738 4.86426 10.0373 4.86426ZM10.0373 13.3347C8.19715 13.3347 6.70455 11.8422 6.70455 10.002C6.70455 8.16172 8.19715 6.66927 10.0373 6.66927C11.8775 6.66927 13.37 8.16172 13.37 10.002C13.37 11.8422 11.8775 13.3347 10.0373 13.3347Z" fill="black"/>
<path d="M16.5777 4.66134C16.5777 5.3237 16.0407 5.86076 15.3781 5.86076C14.7158 5.86076 14.1787 5.3237 14.1787 4.66134C14.1787 3.99882 14.7158 3.46191 15.3781 3.46191C16.0407 3.46191 16.5777 3.99882 16.5777 4.66134Z" fill="black"/>
</g>
<defs>
<clipPath id="clip0">
<rect width="20" height="20" fill="white"/>
</clipPath>
</defs>
</svg>
