<svg width="46" height="45" viewBox="0 0 46 45" fill="none" xmlns="http://www.w3.org/2000/svg">
<g clip-path="url(#clip0)">
<path d="M2.6831e-07 22.5C1.20355e-07 34.9073 10.317 45 23 45C35.683 45 46 34.9073 46 22.5C46 10.0927 35.6812 -3.3892e-06 23 -3.54043e-06C10.3188 -3.69165e-06 4.16265e-07 10.0927 2.6831e-07 22.5ZM42.4369 22.5C42.4369 32.9832 33.7179 41.5143 23 41.5143C12.2821 41.5143 3.56311 32.9832 3.56311 22.5C3.56311 12.0151 12.2821 3.48565 23 3.48565C33.7179 3.48565 42.4369 12.0168 42.4369 22.5Z" fill="white"/>
<path d="M25.4586 12.5482L16.5508 21.2623C15.8595 21.9421 15.8595 23.04 16.5508 23.7198L25.4586 32.4339C26.1249 32.9934 27.1101 32.9934 27.7764 32.4339C28.5229 31.8083 28.6102 30.7068 27.9706 29.9765L20.3277 22.4997L27.9707 15.0056C28.6619 14.3258 28.6619 13.2279 27.9707 12.5482C27.2758 11.8719 26.1534 11.8719 25.4586 12.5482Z" fill="white"/>
</g>
<defs>
<clipPath id="clip0">
<rect width="45" height="46" fill="white" transform="translate(0 45) rotate(-90)"/>
</clipPath>
</defs>
</svg>
