<svg width="21" height="21" viewBox="0 0 21 21" fill="none" xmlns="http://www.w3.org/2000/svg">
<g clip-path="url(#clip0)">
<path d="M9.26928 10.506L0.267441 1.50411C-0.0799923 1.16857 -0.0896263 0.614932 0.245918 0.267499C0.581463 -0.0799337 1.1351 -0.0895675 1.48253 0.245977C1.48981 0.252997 1.49698 0.260171 1.50406 0.267499L10.506 9.26934L19.5078 0.267448C19.8552 -0.0680964 20.4089 -0.0584626 20.7444 0.28897C21.0718 0.627896 21.0718 1.16519 20.7444 1.50411L11.7426 10.506L20.7444 19.5078C21.0858 19.8493 21.0858 20.4029 20.7444 20.7444C20.4029 21.0858 19.8493 21.0858 19.5078 20.7444L10.506 11.7426L1.50411 20.7444C1.15667 21.08 0.603037 21.0703 0.267492 20.7229C-0.059803 20.384 -0.059803 19.8467 0.267492 19.5078L9.26928 10.506Z" fill="#636363"/>
</g>
<defs>
<clipPath id="clip0">
<rect width="21" height="21" fill="white" transform="matrix(-1 0 0 1 21 0)"/>
</clipPath>
</defs>
</svg>
