<svg width="18" height="18" viewBox="0 0 18 18" fill="none" xmlns="http://www.w3.org/2000/svg">
<g clip-path="url(#clip0)">
<path d="M16.4744 1.88592C14.5016 -0.0443726 11.3477 -0.0439528 9.37541 1.88687L1.10338 10.1589C-0.392373 11.69 -0.363788 14.1436 1.16723 15.6393C2.67305 17.1105 5.07796 17.1105 6.58378 15.6393L14.0742 8.14889C15.048 7.17512 15.048 5.59628 14.0742 4.62251C13.1005 3.64874 11.5216 3.64874 10.5479 4.62251L3.38306 11.7873C3.13316 12.046 3.14034 12.4584 3.39909 12.7083C3.65151 12.9521 4.05167 12.9521 4.30409 12.7083L11.4689 5.5435C11.944 5.08835 12.6981 5.10457 13.1532 5.57968C13.5946 6.04044 13.5946 6.76713 13.1532 7.2279L5.66279 14.7183C4.65089 15.7158 3.02191 15.7041 2.0244 14.6922C1.03697 13.6906 1.03697 12.0816 2.0244 11.0799L10.2964 2.80786C11.7699 1.33387 14.1592 1.33345 15.6332 2.80687C17.1072 4.28029 17.1076 6.66966 15.6342 8.14366L7.36215 16.4157C7.08893 16.6497 7.0571 17.0609 7.29109 17.3341C7.52507 17.6073 7.93626 17.6392 8.20948 17.4052C8.23497 17.3834 8.25871 17.3596 8.28054 17.3341L16.5526 9.06205C18.5126 7.05883 18.4776 3.84594 16.4744 1.88592Z" fill="#122E68"/>
</g>
<defs>
<clipPath id="clip0">
<rect width="18" height="18" fill="white"/>
</clipPath>
</defs>
</svg>
