<svg width="22" height="22" viewBox="0 0 22 22" fill="none" xmlns="http://www.w3.org/2000/svg">
<g clip-path="url(#clip0)">
<path d="M14.3861 10.0114L9.52575 7.35199C9.24629 7.19908 8.91597 7.20479 8.64204 7.3671C8.36795 7.52957 8.20447 7.81659 8.20447 8.13517V13.4082C8.20447 13.7253 8.36694 14.0118 8.63919 14.1745C8.78135 14.2594 8.93896 14.302 9.0969 14.302C9.24159 14.302 9.38661 14.2663 9.52004 14.1944L14.3805 11.5809C14.6691 11.4256 14.8492 11.1257 14.8505 10.7979C14.8517 10.4701 14.6738 10.1688 14.3861 10.0114ZM9.49369 12.7449V8.80387L13.1262 10.7915L9.49369 12.7449Z" fill="black"/>
<path d="M21.8381 6.59688L21.8371 6.58681C21.8185 6.40973 21.633 4.83466 20.8673 4.03352C19.9822 3.09123 18.9789 2.97676 18.4963 2.92188C18.4563 2.91734 18.4198 2.91315 18.387 2.90878L18.3486 2.90475C15.4402 2.69327 11.0478 2.6644 11.0038 2.66423L11 2.66406L10.9961 2.66423C10.9521 2.6644 6.55976 2.69327 3.62514 2.90475L3.58637 2.90878C3.55515 2.91298 3.52074 2.91684 3.48331 2.9212C3.00629 2.97626 2.01365 3.0909 1.12608 4.06726C0.396788 4.85983 0.185973 6.40117 0.164321 6.57439L0.161804 6.59688C0.155258 6.67056 0 8.42473 0 10.1858V11.832C0 13.5931 0.155258 15.3472 0.161804 15.4211L0.162979 15.4322C0.181609 15.6064 0.366911 17.1526 1.1291 17.9541C1.96128 18.8648 3.01351 18.9853 3.57948 19.0501C3.66895 19.0603 3.74599 19.0691 3.79852 19.0783L3.84938 19.0853C5.52868 19.2451 10.7938 19.3239 11.0171 19.327L11.0238 19.3272L11.0305 19.327C11.0745 19.3269 15.4667 19.298 18.3751 19.0865L18.4135 19.0825C18.4503 19.0776 18.4916 19.0733 18.5369 19.0686C19.0112 19.0182 19.9985 18.9136 20.8738 17.9505C21.6031 17.1578 21.8141 15.6165 21.8356 15.4434L21.8381 15.4209C21.8447 15.3471 22.0001 13.5931 22.0001 11.832V10.1858C21.9999 8.42473 21.8447 6.67073 21.8381 6.59688ZM20.7107 11.832C20.7107 13.462 20.5684 15.1406 20.5549 15.2947C20.5002 15.7192 20.2778 16.6944 19.9225 17.0806C19.3746 17.6833 18.8118 17.7431 18.401 17.7865C18.3513 17.7917 18.3053 17.7968 18.2637 17.802C15.4506 18.0054 11.224 18.0366 11.0293 18.0378C10.811 18.0346 5.62284 17.9552 3.99474 17.804C3.91132 17.7904 3.82118 17.78 3.72618 17.7693C3.2443 17.714 2.58466 17.6385 2.07743 17.0806L2.06551 17.0678C1.71639 16.7041 1.50038 15.7922 1.44549 15.2997C1.43525 15.1832 1.28923 13.4848 1.28923 11.832V10.1858C1.28923 8.55766 1.43122 6.88087 1.44499 6.7236C1.51028 6.22359 1.73687 5.30748 2.07743 4.93721C2.64206 4.31618 3.23741 4.24736 3.63118 4.20187C3.66878 4.19751 3.70386 4.19348 3.73625 4.18929C6.59031 3.98485 10.8472 3.95447 11 3.95329C11.1527 3.9543 15.4081 3.98485 18.2368 4.18929C18.2716 4.19365 18.3095 4.19801 18.3503 4.20271C18.7553 4.24887 19.3674 4.3187 19.9292 4.91791L19.9344 4.92345C20.2835 5.28717 20.4995 6.21503 20.5544 6.71739C20.5642 6.82733 20.7107 8.52946 20.7107 10.1858V11.832Z" fill="black"/>
</g>
<defs>
<clipPath id="clip0">
<rect width="22" height="22" fill="white"/>
</clipPath>
</defs>
</svg>
