<svg width="27" height="16" viewBox="0 0 27 16" fill="none" xmlns="http://www.w3.org/2000/svg">
<path fill-rule="evenodd" clip-rule="evenodd" d="M13.2445 15.7717H14.8143C14.8143 15.7717 15.2884 15.7197 15.5305 15.4587C15.7533 15.2191 15.7462 14.7692 15.7462 14.7692C15.7462 14.7692 15.7155 12.6629 16.6931 12.3527C17.6568 12.0472 18.8943 14.3884 20.2059 15.2886C21.1977 15.9699 21.9514 15.8206 21.9514 15.8206L25.4585 15.7717C25.4585 15.7717 27.2931 15.6587 26.4232 14.2162C26.3519 14.0982 25.9166 13.1492 23.8156 11.199C21.6166 9.15793 21.9111 9.48807 24.5601 5.95746C26.1733 3.8073 26.8183 2.4946 26.6168 1.93237C26.4247 1.39687 25.2382 1.53841 25.2382 1.53841L21.2894 1.56301C21.2894 1.56301 20.9967 1.52308 20.7795 1.65285C20.5674 1.78013 20.4309 2.07676 20.4309 2.07676C20.4309 2.07676 19.8059 3.74063 18.9723 5.15565C17.214 8.1415 16.5109 8.29908 16.2236 8.11369C15.5551 7.68159 15.722 6.3778 15.722 5.45156C15.722 2.55806 16.1608 1.3516 14.8674 1.03929C14.4381 0.93554 14.1223 0.867088 13.0245 0.856036C11.6156 0.841419 10.423 0.860314 9.74777 1.19116C9.29855 1.41114 8.95202 1.90135 9.16308 1.92951C9.42405 1.96445 10.0152 2.08888 10.3285 2.51563C10.7332 3.0661 10.7189 4.3025 10.7189 4.3025C10.7189 4.3025 10.9514 7.70868 10.1759 8.13187C9.64366 8.42208 8.91351 7.82954 7.3459 5.12071C6.54266 3.73314 5.93622 2.1994 5.93622 2.1994C5.93622 2.1994 5.81929 1.91276 5.61072 1.75945C5.35759 1.57371 5.00393 1.51453 5.00393 1.51453L1.25156 1.53912C1.25156 1.53912 0.688264 1.55481 0.481483 1.79974C0.29752 2.01757 0.466866 2.46821 0.466866 2.46821C0.466866 2.46821 3.40458 9.34118 6.7309 12.8048C9.78092 15.9803 13.2445 15.7717 13.2445 15.7717Z" fill="white"/>
</svg>
