<?xml version="1.0" encoding="utf-8"?><svg width="22" height="21" xmlns="http://www.w3.org/2000/svg" viewBox="0 0 22 21"><path d="M9.283 0C4.164 0 0 4.153 0 9.257c0 5.105 4.164 9.257 9.283 9.257 5.118 0 9.282-4.152 9.282-9.257C18.565 4.153 14.401 0 9.283 0zm0 16.993c-4.28 0-7.761-3.47-7.761-7.736 0-4.265 3.481-7.735 7.76-7.735 4.28 0 7.761 3.47 7.761 7.735 0 4.265-3.481 7.736-7.76 7.736z"/><path d="M20.826 19.7l-4.996-4.97a.761.761 0 00-1.074 1.078l4.997 4.971a.759.759 0 001.076-.003.761.761 0 00-.003-1.076z"/></svg>