<?xml version="1.0" encoding="utf-8"?><svg width="25" height="25" xmlns="http://www.w3.org/2000/svg" viewBox="0 0 25 25"><path d="M12.5 19.702a1.22 1.22 0 100-2.441 1.22 1.22 0 000 2.441z"/><path d="M12.5 0C5.592 0 0 5.59 0 12.5 0 19.408 5.59 25 12.5 25 19.408 25 25 19.41 25 12.5 25 5.592 19.41 0 12.5 0zm0 23.047A10.541 10.541 0 011.953 12.5 10.541 10.541 0 0112.5 1.953 10.541 10.541 0 0123.047 12.5 10.541 10.541 0 0112.5 23.047z"/><path d="M12.5 6.274a3.91 3.91 0 00-3.906 3.907.977.977 0 001.953 0c0-1.077.876-1.953 1.953-1.953s1.953.876 1.953 1.953a1.955 1.955 0 01-1.953 1.953.977.977 0 00-.977.976v2.442a.977.977 0 001.954 0v-1.589a3.913 3.913 0 002.93-3.782A3.91 3.91 0 0012.5 6.274z"/></svg>