<?xml version="1.0" encoding="utf-8"?><svg width="122" height="122" xmlns="http://www.w3.org/2000/svg" viewBox="0 0 122 122"><circle cx="61" cy="61" r="60"/><path d="M84.277 71.152c-5.54 0-10.816-1.206-15.68-3.582a1.873 1.873 0 00-1.462-.088c-.48.168-.873.519-1.095.973l-2.998 6.207A47.98 47.98 0 0144.53 56.151l6.204-3.007a1.907 1.907 0 00.881-2.556c-2.377-4.864-3.582-10.14-3.582-15.68A1.908 1.908 0 0046.125 33H34.68C33.627 33 30 36.627 30 37.68c0 28.4 23.105 51.505 51.505 51.505 1.053 0 4.68-3.627 4.68-4.68V73.06a1.908 1.908 0 00-1.908-1.908z"/><path d="M64.293 46.26a1.908 1.908 0 000 3.816c4.208 0 7.63 3.422 7.63 7.63a1.908 1.908 0 003.816 0c0-6.31-5.135-11.445-11.446-11.445z"/><path d="M64.293 38.63a1.908 1.908 0 000 3.816c8.417 0 15.261 6.844 15.261 15.26a1.908 1.908 0 003.815 0c0-10.518-8.557-19.075-19.076-19.075z"/><path d="M64.293 31a1.908 1.908 0 000 3.815c12.625 0 22.892 10.267 22.892 22.891a1.908 1.908 0 003.815 0C91 42.98 79.016 31 64.293 31z"/></svg>