<?xml version="1.0" encoding="utf-8"?><svg width="22" height="22" xmlns="http://www.w3.org/2000/svg" viewBox="0 0 22 22"><g clip-path="url(#qclip0)"><path d="M14.386 10.011l-4.86-2.659a.885.885 0 00-.884.015.885.885 0 00-.438.768v5.273c0 .317.163.604.435.767a.89.89 0 00.881.02l4.86-2.614a.892.892 0 00.006-1.57zm-4.892 2.734V8.804l3.632 1.987-3.632 1.954z"/><path d="M21.838 6.597v-.01c-.02-.177-.205-1.752-.97-2.553-.886-.943-1.89-1.057-2.372-1.112a5.857 5.857 0 01-.109-.013l-.038-.004c-2.909-.212-7.301-.24-7.345-.24h-.008c-.044 0-4.436.028-7.37.24l-.04.004-.103.012c-.477.055-1.47.17-2.357 1.146-.73.793-.94 2.334-.962 2.507l-.002.023A45.691 45.691 0 000 10.186v1.646c0 1.761.155 3.515.162 3.59l.001.01c.019.174.204 1.72.966 2.522.832.91 1.885 1.031 2.45 1.096.09.01.167.02.22.028l.05.007c1.68.16 6.945.239 7.168.242h.014c.043 0 4.436-.029 7.344-.24l.038-.005.124-.013c.474-.05 1.462-.155 2.337-1.118.73-.793.94-2.335.962-2.508l.002-.022c.007-.074.162-1.828.162-3.589v-1.646c0-1.761-.155-3.515-.162-3.59zm-1.127 5.235c0 1.63-.143 3.309-.156 3.463-.055.424-.277 1.4-.633 1.786-.547.602-1.11.662-1.521.706a6.99 6.99 0 00-.137.015c-2.813.203-7.04.235-7.235.236-.218-.003-5.406-.083-7.034-.234a5.602 5.602 0 00-.269-.035c-.482-.055-1.141-.13-1.649-.688l-.011-.013c-.35-.364-.566-1.276-.62-1.768a45.052 45.052 0 01-.157-3.468v-1.646c0-1.628.142-3.305.156-3.462.065-.5.292-1.417.632-1.787.565-.62 1.16-.69 1.554-.735l.105-.013c2.854-.204 7.111-.235 7.264-.236.153.001 4.408.032 7.237.236l.113.014c.405.046 1.017.116 1.58.715l.004.005c.35.364.566 1.292.62 1.794.01.11.157 1.812.157 3.469v1.646z"/></g><defs><clipPath id="qclip0"><path d="M0 0h22v22H0z"/></clipPath></defs></svg>