<?xml version="1.0" encoding="utf-8"?><svg width="18" height="18" xmlns="http://www.w3.org/2000/svg" viewBox="0 0 18 18"><g clip-path="url(#lclip0)"><path d="M16.474 1.886a5.075 5.075 0 00-7.099 0L1.103 10.16a3.875 3.875 0 005.48 5.48l7.491-7.49a2.493 2.493 0 10-3.526-3.526l-7.165 7.164a.651.651 0 00.921.921l7.165-7.165a1.191 1.191 0 011.684 1.685l-7.49 7.49a2.573 2.573 0 01-3.639-3.638l8.272-8.272a3.774 3.774 0 015.338 5.336l-8.272 8.272a.651.651 0 10.919.918l8.272-8.272a5.075 5.075 0 00-.079-7.176z"/></g><defs><clipPath id="lclip0"><path d="M0 0h18v18H0z"/></clipPath></defs></svg>