<?xml version="1.0" encoding="utf-8"?><svg width="27" height="16" xmlns="http://www.w3.org/2000/svg" viewBox="0 0 27 16"><path fill-rule="evenodd" clip-rule="evenodd" d="M13.245 15.772h1.57s.473-.052.716-.313c.222-.24.215-.69.215-.69s-.03-2.106.947-2.416c.964-.306 2.201 2.035 3.513 2.936.992.68 1.745.532 1.745.532l3.508-.05s1.834-.112.964-1.555c-.071-.118-.506-1.067-2.607-3.017-2.2-2.041-1.905-1.71.744-5.242 1.613-2.15 2.258-3.462 2.057-4.025-.192-.535-1.379-.394-1.379-.394l-3.949.025s-.292-.04-.51.09c-.212.127-.348.424-.348.424s-.625 1.664-1.459 3.079c-1.758 2.986-2.461 3.143-2.748 2.958-.669-.432-.502-1.736-.502-2.662 0-2.894.439-4.1-.855-4.413-.429-.103-.745-.172-1.843-.183-1.408-.015-2.601.004-3.276.335-.45.22-.796.71-.585.739.261.034.852.159 1.165.586.405.55.39 1.787.39 1.787s.233 3.406-.542 3.829c-.532.29-1.262-.302-2.83-3.011-.803-1.388-1.41-2.922-1.41-2.922s-.117-.286-.325-.44c-.253-.185-.607-.244-.607-.244l-3.752.024s-.564.016-.77.26c-.184.219-.015.67-.015.67S3.405 9.34 6.73 12.804c3.05 3.175 6.514 2.967 6.514 2.967z"/></svg>