<?xml version="1.0" encoding="utf-8"?><svg width="46" height="45" xmlns="http://www.w3.org/2000/svg" viewBox="0 0 46 45"><g clip-path="url(#sclip0)"><path d="M0 22.5C0 34.907 10.317 45 23 45s23-10.093 23-22.5S35.681 0 23 0 0 10.093 0 22.5zm42.437 0c0 10.483-8.72 19.014-19.437 19.014-10.718 0-19.437-8.53-19.437-19.014 0-10.485 8.72-19.014 19.437-19.014 10.718 0 19.437 8.53 19.437 19.014z"/><path d="M25.459 12.548l-8.908 8.714a1.715 1.715 0 000 2.458l8.908 8.714a1.81 1.81 0 002.317 0 1.718 1.718 0 00.195-2.457L20.328 22.5l7.643-7.494a1.715 1.715 0 000-2.458 1.809 1.809 0 00-2.512 0z"/></g><defs><clipPath id="sclip0"><path transform="rotate(-90 22.5 22.5)" d="M0 0h45v46H0z"/></clipPath></defs></svg>