<?xml version="1.0" encoding="utf-8"?><svg viewBox="0 0 122 122" xmlns="http://www.w3.org/2000/svg" xmlns:xlink="http://www.w3.org/1999/xlink"><style>:root>svg{display:none}:root>svg:target{display:block}</style><svg viewBox="0 0 21 21" id="close" xmlns="http://www.w3.org/2000/svg"><g clip-path="url(#aclip0)"><path d="M9.27 10.506L.266 1.504A.875.875 0 111.504.267l9.002 9.002L19.508.267a.875.875 0 011.236 1.237l-9.001 9.002 9.001 9.002a.875.875 0 01-1.236 1.236l-9.002-9.001-9.002 9.001a.875.875 0 01-1.237-1.236l9.002-9.002z"/></g><defs><clipPath id="aclip0"><path transform="matrix(-1 0 0 1 21 0)" d="M0 0h21v21H0z"/></clipPath></defs></svg><svg viewBox="0 0 29 29" id="example" xmlns="http://www.w3.org/2000/svg"><path d="M28.24 22.372l-5.87-3.915a1.713 1.713 0 00-2.294.373l-1.71 2.199a.73.73 0 01-.937.197l-.325-.18c-1.079-.587-2.42-1.319-5.123-4.023-2.703-2.704-3.436-4.046-4.024-5.122l-.178-.326a.732.732 0 01.193-.94l2.197-1.71c.703-.55.865-1.548.373-2.293L6.628.762A1.704 1.704 0 004.33.245L1.876 1.719A3.462 3.462 0 00.297 3.77c-.884 3.22-.219 8.778 7.969 16.966C14.779 27.247 19.627 29 22.96 29a8.56 8.56 0 002.271-.297 3.46 3.46 0 002.05-1.579l1.475-2.453a1.704 1.704 0 00-.517-2.298zm-.317 1.802l-1.472 2.455a2.497 2.497 0 01-1.474 1.142c-2.973.817-8.167.14-16.028-7.72C1.09 12.191.413 6.997 1.23 4.024a2.501 2.501 0 011.144-1.476l2.455-1.472a.74.74 0 01.997.224L7.95 4.492 9.736 7.17a.744.744 0 01-.162.996L7.377 9.874a1.691 1.691 0 00-.448 2.17l.175.318c.617 1.132 1.385 2.542 4.189 5.344 2.803 2.803 4.212 3.571 5.344 4.189l.317.175c.735.412 1.66.22 2.171-.448l1.71-2.198a.744.744 0 01.995-.16l5.87 3.914c.329.218.428.658.223.996zM16.433 4.836a8.225 8.225 0 018.215 8.215.483.483 0 10.967 0 9.192 9.192 0 00-9.182-9.182.483.483 0 100 .967z"/><path d="M16.433 7.735a5.322 5.322 0 015.316 5.316.483.483 0 00.966 0 6.29 6.29 0 00-6.282-6.282.483.483 0 100 .966z"/><path d="M16.433 10.635a2.42 2.42 0 012.416 2.416.483.483 0 10.967 0 3.387 3.387 0 00-3.383-3.383.483.483 0 100 .967z"/></svg><svg viewBox="0 0 5 10" id="icon__arrow" xmlns="http://www.w3.org/2000/svg"><path d="M4.864 4.318L1.077.15A.442.442 0 00.747 0a.442.442 0 00-.329.15L.14.456a.55.55 0 000 .725l3.18 3.5L.137 8.185A.536.536 0 000 8.547c0 .137.048.266.136.363l.279.306c.088.097.204.15.33.15a.442.442 0 00.328-.15l3.791-4.171A.537.537 0 005 4.68a.536.536 0 00-.136-.363z"/></svg><svg viewBox="0 0 41 41" id="icon__arrow-other" xmlns="http://www.w3.org/2000/svg"><g clip-path="url(#dclip0)"><path d="M31.105 19.375L12.142.464a1.59 1.59 0 00-2.245 2.25L27.732 20.5 9.897 38.286a1.589 1.589 0 102.245 2.25l18.963-18.91a1.587 1.587 0 000-2.251z"/></g><defs><clipPath id="dclip0"><path d="M0 0h41v41H0z"/></clipPath></defs></svg><svg viewBox="0 0 21 21" id="icon__close" xmlns="http://www.w3.org/2000/svg"><g clip-path="url(#eclip0)"><path d="M9.27 10.506L.266 1.504A.875.875 0 111.504.267l9.002 9.002L19.508.267a.875.875 0 011.236 1.237l-9.001 9.002 9.001 9.002a.875.875 0 01-1.236 1.236l-9.002-9.001-9.002 9.001a.875.875 0 01-1.237-1.236l9.002-9.002z"/></g><defs><clipPath id="eclip0"><path transform="matrix(-1 0 0 1 21 0)" d="M0 0h21v21H0z"/></clipPath></defs></svg><svg viewBox="0 0 20 20" id="icon__fb" xmlns="http://www.w3.org/2000/svg"><g clip-path="url(#fclip0)"><path d="M13.33 3.32h1.826V.14a23.578 23.578 0 00-2.66-.14C9.864 0 8.061 1.656 8.061 4.7v2.8H5.156v3.555H8.06V20h3.561v-8.944h2.788l.442-3.555h-3.23V5.05c0-1.027.277-1.73 1.709-1.73z"/></g><defs><clipPath id="fclip0"><path d="M0 0h20v20H0z"/></clipPath></defs></svg><svg viewBox="0 0 25 25" id="icon__information" xmlns="http://www.w3.org/2000/svg"><path d="M12.5 19.702a1.22 1.22 0 100-2.441 1.22 1.22 0 000 2.441z"/><path d="M12.5 0C5.592 0 0 5.59 0 12.5 0 19.408 5.59 25 12.5 25 19.408 25 25 19.41 25 12.5 25 5.592 19.41 0 12.5 0zm0 23.047A10.541 10.541 0 011.953 12.5 10.541 10.541 0 0112.5 1.953 10.541 10.541 0 0123.047 12.5 10.541 10.541 0 0112.5 23.047z"/><path d="M12.5 6.274a3.91 3.91 0 00-3.906 3.907.977.977 0 001.953 0c0-1.077.876-1.953 1.953-1.953s1.953.876 1.953 1.953a1.955 1.955 0 01-1.953 1.953.977.977 0 00-.977.976v2.442a.977.977 0 001.954 0v-1.589a3.913 3.913 0 002.93-3.782A3.91 3.91 0 0012.5 6.274z"/></svg><svg viewBox="0 0 20 20" id="icon__inst" xmlns="http://www.w3.org/2000/svg"><g clip-path="url(#hclip0)"><path d="M19.98 5.88c-.047-1.063-.219-1.793-.465-2.426A4.882 4.882 0 0018.36 1.68a4.923 4.923 0 00-1.77-1.153C15.952.281 15.225.11 14.163.063 13.092.012 12.753 0 10.037 0S6.98.012 5.915.059C4.852.105 4.122.277 3.489.523A4.88 4.88 0 001.715 1.68 4.924 4.924 0 00.562 3.45C.316 4.087.144 4.813.097 5.876c-.05 1.07-.062 1.41-.062 4.126 0 2.715.012 3.055.058 4.122.047 1.063.22 1.793.465 2.426a4.932 4.932 0 001.157 1.774c.5.508 1.106.902 1.77 1.152.637.247 1.363.419 2.426.465 1.067.047 1.407.059 4.122.059s3.055-.012 4.122-.059c1.063-.046 1.793-.218 2.426-.464a5.116 5.116 0 002.926-2.927c.246-.637.418-1.364.465-2.426.047-1.067.059-1.407.059-4.122s-.004-3.055-.05-4.122zm-1.801 8.166c-.043.977-.207 1.504-.344 1.856a3.318 3.318 0 01-1.899 1.898c-.351.137-.883.301-1.855.344-1.055.047-1.372.059-4.04.059-2.669 0-2.99-.012-4.04-.059-.977-.043-1.504-.207-1.856-.344a3.077 3.077 0 01-1.149-.746 3.11 3.11 0 01-.746-1.148c-.137-.352-.3-.883-.344-1.856-.047-1.055-.058-1.372-.058-4.04 0-2.669.011-2.99.058-4.04.043-.977.207-1.504.344-1.856A3.04 3.04 0 013 2.965 3.105 3.105 0 014.15 2.22c.352-.137.883-.3 1.856-.344 1.055-.046 1.371-.058 4.04-.058 2.672 0 2.988.012 4.04.058.976.043 1.504.207 1.855.344.434.16.829.414 1.149.746.332.325.586.715.746 1.15.137.35.301.882.344 1.855.047 1.055.059 1.371.059 4.04 0 2.668-.012 2.98-.059 4.036z"/><path d="M10.037 4.864A5.139 5.139 0 004.9 10.002a5.139 5.139 0 105.138-5.138zm0 8.47a3.333 3.333 0 11.001-6.666 3.333 3.333 0 010 6.667zM16.578 4.661a1.2 1.2 0 11-2.4 0 1.2 1.2 0 012.4 0z"/></g><defs><clipPath id="hclip0"><path d="M0 0h20v20H0z"/></clipPath></defs></svg><svg viewBox="0 0 30 30" id="icon__link" xmlns="http://www.w3.org/2000/svg"><path d="M4.688 15.937H23.39L16.23 22.76a.938.938 0 001.293 1.358l8.179-7.791a1.876 1.876 0 00-.016-2.668L17.52 5.884a.933.933 0 00-1.325.032.937.937 0 00.032 1.325l7.192 6.821H4.687a.938.938 0 000 1.875z"/></svg><svg viewBox="0 0 122 122" id="icon__modal" xmlns="http://www.w3.org/2000/svg"><circle cx="61" cy="61" r="60"/><path d="M84.277 71.152c-5.54 0-10.816-1.206-15.68-3.582a1.873 1.873 0 00-1.462-.088c-.48.168-.873.519-1.095.973l-2.998 6.207A47.98 47.98 0 0144.53 56.151l6.204-3.007a1.907 1.907 0 00.881-2.556c-2.377-4.864-3.582-10.14-3.582-15.68A1.908 1.908 0 0046.125 33H34.68C33.627 33 30 36.627 30 37.68c0 28.4 23.105 51.505 51.505 51.505 1.053 0 4.68-3.627 4.68-4.68V73.06a1.908 1.908 0 00-1.908-1.908z"/><path d="M64.293 46.26a1.908 1.908 0 000 3.816c4.208 0 7.63 3.422 7.63 7.63a1.908 1.908 0 003.816 0c0-6.31-5.135-11.445-11.446-11.445z"/><path d="M64.293 38.63a1.908 1.908 0 000 3.816c8.417 0 15.261 6.844 15.261 15.26a1.908 1.908 0 003.815 0c0-10.518-8.557-19.075-19.076-19.075z"/><path d="M64.293 31a1.908 1.908 0 000 3.815c12.625 0 22.892 10.267 22.892 22.891a1.908 1.908 0 003.815 0C91 42.98 79.016 31 64.293 31z"/></svg><svg viewBox="0 0 9 17" id="icon__next" xmlns="http://www.w3.org/2000/svg"><path d="M8.573 7.61L1.898.264A.779.779 0 001.318 0a.779.779 0 00-.58.264l-.492.54a.97.97 0 000 1.278L5.85 8.25.24 14.426a.945.945 0 00-.24.638c0 .242.085.469.24.639l.491.54c.155.17.36.264.58.264.22 0 .426-.093.58-.263L8.574 8.89a.946.946 0 00.24-.64.946.946 0 00-.24-.641z"/></svg><svg viewBox="0 0 18 18" id="icon__paper-clip" xmlns="http://www.w3.org/2000/svg"><g clip-path="url(#lclip0)"><path d="M16.474 1.886a5.075 5.075 0 00-7.099 0L1.103 10.16a3.875 3.875 0 005.48 5.48l7.491-7.49a2.493 2.493 0 10-3.526-3.526l-7.165 7.164a.651.651 0 00.921.921l7.165-7.165a1.191 1.191 0 011.684 1.685l-7.49 7.49a2.573 2.573 0 01-3.639-3.638l8.272-8.272a3.774 3.774 0 015.338 5.336l-8.272 8.272a.651.651 0 10.919.918l8.272-8.272a5.075 5.075 0 00-.079-7.176z"/></g><defs><clipPath id="lclip0"><path d="M0 0h18v18H0z"/></clipPath></defs></svg><svg viewBox="0 0 15 17" id="icon__play" xmlns="http://www.w3.org/2000/svg"><path d="M14.5 7.634a1 1 0 010 1.732L1.75 16.727a1 1 0 01-1.5-.866V1.14a1 1 0 011.5-.866L14.5 7.634z"/></svg><svg viewBox="0 0 26 30" id="icon__play-n" xmlns="http://www.w3.org/2000/svg"><path d="M25.25 14.567a.5.5 0 010 .866l-24 13.856a.5.5 0 01-.75-.433V1.144A.5.5 0 011.25.71l24 13.856z"/></svg><svg viewBox="0 0 22 21" id="icon__search" xmlns="http://www.w3.org/2000/svg"><path d="M9.283 0C4.164 0 0 4.153 0 9.257c0 5.105 4.164 9.257 9.283 9.257 5.118 0 9.282-4.152 9.282-9.257C18.565 4.153 14.401 0 9.283 0zm0 16.993c-4.28 0-7.761-3.47-7.761-7.736 0-4.265 3.481-7.735 7.76-7.735 4.28 0 7.761 3.47 7.761 7.735 0 4.265-3.481 7.736-7.76 7.736z"/><path d="M20.826 19.7l-4.996-4.97a.761.761 0 00-1.074 1.078l4.997 4.971a.759.759 0 001.076-.003.761.761 0 00-.003-1.076z"/></svg><svg viewBox="0 0 24 24" id="icon__search-n" xmlns="http://www.w3.org/2000/svg"><path d="M21.62 20.662l-4.513-4.743A9.659 9.659 0 0019.38 9.69C19.38 4.347 15.033 0 9.69 0 4.347 0 0 4.347 0 9.69c0 5.343 4.347 9.69 9.69 9.69a9.586 9.586 0 005.552-1.753l4.557 4.787c.24.25.564.388.91.388a1.265 1.265 0 00.91-2.14zM9.69 2.528c3.95 0 7.162 3.213 7.162 7.162 0 3.95-3.213 7.162-7.162 7.162-3.95 0-7.162-3.213-7.162-7.162 0-3.95 3.213-7.162 7.162-7.162z"/></svg><svg viewBox="0 0 22 22" id="icon__yt" xmlns="http://www.w3.org/2000/svg"><g clip-path="url(#qclip0)"><path d="M14.386 10.011l-4.86-2.659a.885.885 0 00-.884.015.885.885 0 00-.438.768v5.273c0 .317.163.604.435.767a.89.89 0 00.881.02l4.86-2.614a.892.892 0 00.006-1.57zm-4.892 2.734V8.804l3.632 1.987-3.632 1.954z"/><path d="M21.838 6.597v-.01c-.02-.177-.205-1.752-.97-2.553-.886-.943-1.89-1.057-2.372-1.112a5.857 5.857 0 01-.109-.013l-.038-.004c-2.909-.212-7.301-.24-7.345-.24h-.008c-.044 0-4.436.028-7.37.24l-.04.004-.103.012c-.477.055-1.47.17-2.357 1.146-.73.793-.94 2.334-.962 2.507l-.002.023A45.691 45.691 0 000 10.186v1.646c0 1.761.155 3.515.162 3.59l.001.01c.019.174.204 1.72.966 2.522.832.91 1.885 1.031 2.45 1.096.09.01.167.02.22.028l.05.007c1.68.16 6.945.239 7.168.242h.014c.043 0 4.436-.029 7.344-.24l.038-.005.124-.013c.474-.05 1.462-.155 2.337-1.118.73-.793.94-2.335.962-2.508l.002-.022c.007-.074.162-1.828.162-3.589v-1.646c0-1.761-.155-3.515-.162-3.59zm-1.127 5.235c0 1.63-.143 3.309-.156 3.463-.055.424-.277 1.4-.633 1.786-.547.602-1.11.662-1.521.706a6.99 6.99 0 00-.137.015c-2.813.203-7.04.235-7.235.236-.218-.003-5.406-.083-7.034-.234a5.602 5.602 0 00-.269-.035c-.482-.055-1.141-.13-1.649-.688l-.011-.013c-.35-.364-.566-1.276-.62-1.768a45.052 45.052 0 01-.157-3.468v-1.646c0-1.628.142-3.305.156-3.462.065-.5.292-1.417.632-1.787.565-.62 1.16-.69 1.554-.735l.105-.013c2.854-.204 7.111-.235 7.264-.236.153.001 4.408.032 7.237.236l.113.014c.405.046 1.017.116 1.58.715l.004.005c.35.364.566 1.292.62 1.794.01.11.157 1.812.157 3.469v1.646z"/></g><defs><clipPath id="qclip0"><path d="M0 0h22v22H0z"/></clipPath></defs></svg><svg viewBox="0 0 46 45" id="up-arrow__icon" xmlns="http://www.w3.org/2000/svg"><g clip-path="url(#rclip0)"><path d="M0 22.5C0 34.907 10.317 45 23 45s23-10.093 23-22.5S35.681 0 23 0 0 10.093 0 22.5zm42.437 0c0 10.483-8.72 19.014-19.437 19.014-10.718 0-19.437-8.53-19.437-19.014 0-10.485 8.72-19.014 19.437-19.014 10.718 0 19.437 8.53 19.437 19.014z"/><path d="M25.459 12.548l-8.908 8.714a1.715 1.715 0 000 2.458l8.908 8.714a1.81 1.81 0 002.317 0 1.718 1.718 0 00.195-2.457L20.328 22.5l7.643-7.494a1.715 1.715 0 000-2.458 1.809 1.809 0 00-2.512 0z"/></g><defs><clipPath id="rclip0"><path transform="rotate(-90 22.5 22.5)" d="M0 0h45v46H0z"/></clipPath></defs></svg><svg viewBox="0 0 12 16" id="up-arrow__icon-n" xmlns="http://www.w3.org/2000/svg"><path d="M10.876 7.19a1 1 0 010 1.62l-9.29 6.706A1 1 0 010 14.706V1.294A1 1 0 011.585.484l9.291 6.705z"/></svg></svg>