<svg width="25" height="25" viewBox="0 0 25 25" fill="none" xmlns="http://www.w3.org/2000/svg">
<path d="M21.0938 11.7188H5.5082L11.4762 6.03444C11.7887 5.73679 11.8008 5.24226 11.5031 4.92976C11.2059 4.61765 10.7113 4.60515 10.3984 4.9028L3.58281 11.395C3.28789 11.6903 3.125 12.0825 3.125 12.5001C3.125 12.9173 3.28789 13.3098 3.59648 13.618L10.3988 20.0969C10.55 20.2411 10.7438 20.3126 10.9375 20.3126C11.1438 20.3126 11.35 20.2313 11.5035 20.07C11.8012 19.7575 11.7891 19.2633 11.4766 18.9657L5.48359 13.2813H21.0938C21.525 13.2813 21.875 12.9313 21.875 12.5001C21.875 12.0688 21.525 11.7188 21.0938 11.7188Z" fill="black"/>
</svg>
