<svg width="22" height="22" viewBox="0 0 22 22" fill="none" xmlns="http://www.w3.org/2000/svg">
<path d="M12.849 4.31457C12.5744 4.05297 12.1388 4.06328 11.8772 4.33828C11.6153 4.61328 11.6263 5.04847 11.901 5.31041L17.1748 10.3123H3.4375C3.058 10.3123 2.75 10.6203 2.75 10.9998C2.75 11.3793 3.058 11.6873 3.4375 11.6873H17.1528L11.901 16.6896C11.626 16.9515 11.6153 17.3867 11.8772 17.6617C12.0123 17.8033 12.1935 17.8748 12.375 17.8748C12.5455 17.8748 12.716 17.8119 12.849 17.6851L18.8471 11.9719C19.107 11.7124 19.25 11.3673 19.25 10.9998C19.25 10.6323 19.107 10.2872 18.8351 10.016L12.849 4.31457Z" fill="white"/>
</svg>
