<svg width="5" height="10" viewBox="0 0 5 10" fill="none" xmlns="http://www.w3.org/2000/svg">
<path d="M4.86424 4.31753L1.07685 0.149626C0.989247 0.0531497 0.872312 0 0.747627 0C0.622941 0 0.506006 0.0531497 0.418408 0.149626L0.139492 0.456493C-0.0419999 0.656451 -0.0419999 0.981441 0.139492 1.18109L3.31986 4.68105L0.135964 8.18489C0.0483657 8.28137 0 8.40998 0 8.54712C0 8.68441 0.0483657 8.81302 0.135964 8.90957L0.414879 9.21636C0.502546 9.31284 0.619413 9.36599 0.744098 9.36599C0.868783 9.36599 0.985719 9.31284 1.07332 9.21636L4.86424 5.04465C4.95205 4.94787 5.00028 4.81865 5 4.68128C5.00028 4.54338 4.95205 4.41424 4.86424 4.31753Z" fill="#C1C1C1"/>
</svg>
