<svg width="10" height="5" viewBox="0 0 10 5" fill="none" xmlns="http://www.w3.org/2000/svg">
<path d="M5.04781 4.86412L9.21561 1.07682C9.31209 0.989223 9.36523 0.87229 9.36523 0.747608C9.36523 0.622926 9.31209 0.505993 9.21561 0.418398L8.90875 0.139489C8.7088 -0.0419988 8.38382 -0.0419988 8.18417 0.139489L4.6843 3.31978L1.18054 0.135961C1.08407 0.0483648 0.955461 3.53067e-07 0.818326 3.58824e-07C0.681039 3.64588e-07 0.552432 0.0483649 0.455881 0.135961L0.149098 0.414869C0.0526247 0.502534 -0.00052356 0.619398 -0.000523558 0.74408C-0.000523557 0.868762 0.0526247 0.985695 0.149098 1.07329L4.32071 4.86412C4.41749 4.95193 4.54671 5.00015 4.68407 4.99988C4.82196 5.00015 4.9511 4.95193 5.04781 4.86412Z" fill="#0F927C"/>
</svg>
