<svg width="16" height="16" viewBox="0 0 16 16" fill="none" xmlns="http://www.w3.org/2000/svg">
<g clip-path="url(#clip0)">
<path d="M10.7811 13.4553C10.5555 13.6809 10.2004 13.6809 9.97483 13.4553C9.75689 13.2374 9.75689 12.8747 9.97483 12.6572L14.063 8.56907L0.572663 8.56907C0.258191 8.56907 0.000109183 8.31912 0.00010921 8.00465C0.000109238 7.69017 0.258191 7.43209 0.572663 7.43209L14.063 7.43209L9.97483 3.35157C9.75689 3.12601 9.75689 2.76276 9.97483 2.54532C10.2004 2.31976 10.5555 2.31976 10.7811 2.54532L15.837 7.60127C16.055 7.81922 16.055 8.18195 15.837 8.39939L10.7811 13.4553Z" fill="#1074BA"/>
</g>
<defs>
<clipPath id="clip0">
<rect width="16" height="16" fill="white" transform="translate(16 16) rotate(-180)"/>
</clipPath>
</defs>
</svg>
