<svg width="46" height="46" viewBox="0 0 46 46" fill="none" xmlns="http://www.w3.org/2000/svg">
<path d="M44.8438 30.7188H44.125V24.9688C44.124 24.2066 43.8208 23.4759 43.2818 22.9369C42.7429 22.398 42.0122 22.0947 41.25 22.0938V9.875C41.249 9.11281 40.9458 8.38212 40.4068 7.84317C39.8679 7.30422 39.1372 7.001 38.375 7H8.1875C7.42531 7.001 6.69462 7.30422 6.15567 7.84317C5.61672 8.38212 5.3135 9.11281 5.3125 9.875V22.0938C4.55031 22.0947 3.81962 22.398 3.28067 22.9369C2.74172 23.4759 2.4385 24.2066 2.4375 24.9688V30.7188H1.71875C1.52813 30.7188 1.34531 30.7945 1.21052 30.9293C1.07573 31.0641 1 31.2469 1 31.4375V34.3125C1 34.5031 1.07573 34.6859 1.21052 34.8207C1.34531 34.9555 1.52813 35.0312 1.71875 35.0312H2.4375V37.9062C2.4375 38.0969 2.51323 38.2797 2.64802 38.4145C2.78281 38.5493 2.96563 38.625 3.15625 38.625H5.3125C5.47862 38.6251 5.63962 38.5675 5.76806 38.4622C5.89651 38.3569 5.98444 38.2102 6.01687 38.0473L6.62062 35.0312H39.9419L40.5456 38.0473C40.5781 38.2102 40.666 38.3569 40.7944 38.4622C40.9229 38.5675 41.0839 38.6251 41.25 38.625H43.4062C43.5969 38.625 43.7797 38.5493 43.9145 38.4145C44.0493 38.2797 44.125 38.0969 44.125 37.9062V35.0312H44.8438C45.0344 35.0312 45.2172 34.9555 45.352 34.8207C45.4868 34.6859 45.5625 34.5031 45.5625 34.3125V31.4375C45.5625 31.2469 45.4868 31.0641 45.352 30.9293C45.2172 30.7945 45.0344 30.7188 44.8438 30.7188ZM6.75 9.875C6.7505 9.4939 6.90211 9.12856 7.17159 8.85909C7.44106 8.58961 7.8064 8.438 8.1875 8.4375H38.375C38.7561 8.438 39.1214 8.58961 39.3909 8.85909C39.6604 9.12856 39.812 9.4939 39.8125 9.875V22.0938H38.375V19.2188C38.374 18.4566 38.0708 17.7259 37.5318 17.1869C36.9929 16.648 36.2622 16.3447 35.5 16.3438H26.875C26.1128 16.3447 25.3821 16.648 24.8432 17.1869C24.3042 17.7259 24.001 18.4566 24 19.2188V22.0938H22.5625V19.2188C22.5615 18.4566 22.2583 17.7259 21.7193 17.1869C21.1804 16.648 20.4497 16.3447 19.6875 16.3438H11.0625C10.3003 16.3447 9.56962 16.648 9.03067 17.1869C8.49172 17.7259 8.1885 18.4566 8.1875 19.2188V22.0938H6.75V9.875ZM36.9375 19.2188V22.0938H25.4375V19.2188C25.438 18.8377 25.5896 18.4723 25.8591 18.2028C26.1286 17.9334 26.4939 17.7817 26.875 17.7812H35.5C35.8811 17.7817 36.2464 17.9334 36.5159 18.2028C36.7854 18.4723 36.937 18.8377 36.9375 19.2188ZM21.125 19.2188V22.0938H9.625V19.2188C9.6255 18.8377 9.77711 18.4723 10.0466 18.2028C10.3161 17.9334 10.6814 17.7817 11.0625 17.7812H19.6875C20.0686 17.7817 20.4339 17.9334 20.7034 18.2028C20.9729 18.4723 21.1245 18.8377 21.125 19.2188ZM3.875 24.9688C3.8755 24.5877 4.02711 24.2223 4.29659 23.9528C4.56606 23.6834 4.9314 23.5317 5.3125 23.5312H41.25C41.6311 23.5317 41.9964 23.6834 42.2659 23.9528C42.5354 24.2223 42.687 24.5877 42.6875 24.9688V30.7188H3.875V24.9688ZM4.72312 37.1875H3.875V35.0312H5.15438L4.72312 37.1875ZM42.6875 37.1875H41.8394L41.4081 35.0312H42.6875V37.1875ZM44.125 33.5938H2.4375V32.1562H44.125V33.5938Z" fill="#7AD7FF"/>
</svg>
