<svg width="37" height="37" viewBox="0 0 37 37" fill="none" xmlns="http://www.w3.org/2000/svg">
<path d="M32.375 13.875H33.5312V15.0312H32.375V13.875Z" fill="#0F927C"/>
<path d="M31.2188 15.6094H33.5312V16.7656H31.2188V15.6094Z" fill="#0F927C"/>
<path d="M30.0625 17.3438H33.5312V18.5H30.0625V17.3438Z" fill="#0F927C"/>
<path d="M5.13281 7.24634L7.2467 5.13245L8.06429 5.95004L5.9504 8.06393L5.13281 7.24634Z" fill="#0F927C"/>
<path d="M3.39844 5.51294L5.51232 3.39906L6.32991 4.21665L4.21603 6.33053L3.39844 5.51294Z" fill="#0F927C"/>
<path d="M34.1094 20.8125C34.5689 20.8111 35.0093 20.628 35.3342 20.303C35.6592 19.978 35.8424 19.5377 35.8438 19.0781V2.89062C35.8424 2.43106 35.6592 1.99071 35.3342 1.66575C35.0093 1.34079 34.5689 1.15762 34.1094 1.15625H2.89062C2.43106 1.15762 1.99071 1.34079 1.66575 1.66575C1.34079 1.99071 1.15762 2.43106 1.15625 2.89062V19.0781C1.15762 19.5377 1.34079 19.978 1.66575 20.303C1.99071 20.628 2.43106 20.8111 2.89062 20.8125H9.64891C9.84956 21.2449 10.1278 21.6368 10.4698 21.9688H10.4062C9.94669 21.9701 9.50634 22.1533 9.18138 22.4783C8.85642 22.8032 8.67325 23.2436 8.67188 23.7031V24.2812H6.35938C5.89981 24.2826 5.45946 24.4658 5.1345 24.7908C4.80954 25.1157 4.62637 25.5561 4.625 26.0156V27.1719H2.89062C2.43106 27.1732 1.99071 27.3564 1.66575 27.6814C1.34079 28.0063 1.15762 28.4467 1.15625 28.9062V35.2656C1.15625 35.419 1.21716 35.566 1.32558 35.6744C1.434 35.7828 1.58105 35.8438 1.73438 35.8438H5.20312C5.35645 35.8438 5.5035 35.7828 5.61192 35.6744C5.72034 35.566 5.78125 35.419 5.78125 35.2656V34.6875H31.2188V35.2656C31.2188 35.419 31.2797 35.566 31.3881 35.6744C31.4965 35.7828 31.6435 35.8438 31.7969 35.8438H35.2656C35.419 35.8438 35.566 35.7828 35.6744 35.6744C35.7828 35.566 35.8438 35.419 35.8438 35.2656V28.9062C35.8424 28.4467 35.6592 28.0063 35.3342 27.6814C35.0093 27.3564 34.5689 27.1732 34.1094 27.1719H32.375V26.0156C32.3736 25.5561 32.1905 25.1157 31.8655 24.7908C31.5405 24.4658 31.1002 24.2826 30.6406 24.2812H28.3281V23.7031C28.3268 23.2436 28.1436 22.8032 27.8186 22.4783C27.4937 22.1533 27.0533 21.9701 26.5938 21.9688H26.5302C26.8722 21.6368 27.1504 21.2449 27.3511 20.8125H34.1094ZM4.625 34.6875H2.3125V28.9062C2.3125 28.7529 2.37341 28.6059 2.48183 28.4975C2.59025 28.389 2.7373 28.3281 2.89062 28.3281H4.625V34.6875ZM32.375 28.3281H34.1094C34.2627 28.3281 34.4098 28.389 34.5182 28.4975C34.6266 28.6059 34.6875 28.7529 34.6875 28.9062V34.6875H32.375V28.3281ZM9.29625 19.6562H2.89062C2.7373 19.6562 2.59025 19.5953 2.48183 19.4869C2.37341 19.3785 2.3125 19.2315 2.3125 19.0781V2.89062C2.3125 2.7373 2.37341 2.59025 2.48183 2.48183C2.59025 2.37341 2.7373 2.3125 2.89062 2.3125H34.1094C34.2627 2.3125 34.4098 2.37341 34.5182 2.48183C34.6266 2.59025 34.6875 2.7373 34.6875 2.89062V19.0781C34.6875 19.2315 34.6266 19.3785 34.5182 19.4869C34.4098 19.5953 34.2627 19.6562 34.1094 19.6562H27.7037C27.7337 19.465 27.7492 19.2717 27.75 19.0781C27.75 18.0048 27.3236 16.9755 26.5647 16.2166C25.8058 15.4576 24.7764 15.0312 23.7031 15.0312C22.6298 15.0312 21.6005 15.4576 20.8416 16.2166C20.0826 16.9755 19.6562 18.0048 19.6562 19.0781C19.6571 19.2717 19.6725 19.465 19.7025 19.6562H17.2975C17.3275 19.465 17.3429 19.2717 17.3438 19.0781C17.3438 18.0048 16.9174 16.9755 16.1584 16.2166C15.3995 15.4576 14.3702 15.0312 13.2969 15.0312C12.2236 15.0312 11.1942 15.4576 10.4353 16.2166C9.67637 16.9755 9.25 18.0048 9.25 19.0781C9.2508 19.2717 9.26626 19.465 9.29625 19.6562ZM16.1875 21.9688H16.1239C16.4659 21.6368 16.7442 21.2449 16.9448 20.8125H20.0552C20.2558 21.2449 20.5341 21.6368 20.8761 21.9688H20.8125C20.3529 21.9701 19.9126 22.1533 19.5876 22.4783C19.2627 22.8032 19.0795 23.2436 19.0781 23.7031V24.2812H17.9219V23.7031C17.9205 23.2436 17.7373 22.8032 17.4124 22.4783C17.0874 22.1533 16.6471 21.9701 16.1875 21.9688ZM10.4062 19.0781C10.4062 18.5064 10.5758 17.9475 10.8934 17.4722C11.211 16.9968 11.6625 16.6263 12.1907 16.4075C12.7189 16.1888 13.3001 16.1315 13.8608 16.243C14.4215 16.3546 14.9366 16.6299 15.3409 17.0341C15.7451 17.4384 16.0204 17.9535 16.132 18.5142C16.2435 19.0749 16.1862 19.6561 15.9675 20.1843C15.7487 20.7125 15.3782 21.164 14.9028 21.4816C14.4275 21.7992 13.8686 21.9688 13.2969 21.9688C12.5302 21.9688 11.795 21.6642 11.2529 21.1221C10.7108 20.58 10.4062 19.8448 10.4062 19.0781ZM9.82812 23.7031C9.82812 23.5498 9.88903 23.4027 9.99745 23.2943C10.1059 23.1859 10.2529 23.125 10.4062 23.125H16.1875C16.3408 23.125 16.4879 23.1859 16.5963 23.2943C16.7047 23.4027 16.7656 23.5498 16.7656 23.7031V24.2812H9.82812V23.7031ZM30.6406 25.4375C30.794 25.4375 30.941 25.4984 31.0494 25.6068C31.1578 25.7152 31.2188 25.8623 31.2188 26.0156V33.5312H5.78125V26.0156C5.78125 25.8623 5.84216 25.7152 5.95058 25.6068C6.059 25.4984 6.20605 25.4375 6.35938 25.4375H30.6406ZM26.5938 23.125C26.7471 23.125 26.8941 23.1859 27.0025 23.2943C27.111 23.4027 27.1719 23.5498 27.1719 23.7031V24.2812H20.2344V23.7031C20.2344 23.5498 20.2953 23.4027 20.4037 23.2943C20.5121 23.1859 20.6592 23.125 20.8125 23.125H26.5938ZM23.7031 21.9688C23.1314 21.9688 22.5725 21.7992 22.0972 21.4816C21.6218 21.164 21.2513 20.7125 21.0325 20.1843C20.8138 19.6561 20.7565 19.0749 20.868 18.5142C20.9796 17.9535 21.2549 17.4384 21.6591 17.0341C22.0634 16.6299 22.5785 16.3546 23.1392 16.243C23.6999 16.1315 24.2811 16.1888 24.8093 16.4075C25.3375 16.6263 25.789 16.9968 26.1066 17.4722C26.4242 17.9475 26.5938 18.5064 26.5938 19.0781C26.5938 19.8448 26.2892 20.58 25.7471 21.1221C25.205 21.6642 24.4698 21.9688 23.7031 21.9688Z" fill="#0F927C"/>
<path d="M23.3851 9.31355L16.4477 5.8448C16.3596 5.80046 16.2618 5.77934 16.1633 5.78347C16.0648 5.78759 15.9691 5.81682 15.8851 5.86837C15.8011 5.91992 15.7317 5.99209 15.6834 6.07802C15.6352 6.16395 15.6097 6.26078 15.6094 6.35933V13.2968C15.6092 13.3951 15.634 13.4918 15.6816 13.5777C15.7291 13.6637 15.7978 13.7362 15.8811 13.7882C15.9733 13.8449 16.0793 13.8749 16.1875 13.875C16.2779 13.8738 16.3669 13.852 16.4477 13.8114L23.3851 10.3426C23.4798 10.2941 23.5593 10.2204 23.6148 10.1296C23.6703 10.0388 23.6997 9.93448 23.6997 9.82808C23.6997 9.72168 23.6703 9.61734 23.6148 9.52656C23.5593 9.43577 23.4798 9.36207 23.3851 9.31355ZM16.7656 12.3603V7.2959L21.83 9.82808L16.7656 12.3603Z" fill="#0F927C"/>
</svg>
