<svg width="37" height="37" viewBox="0 0 37 37" fill="none" xmlns="http://www.w3.org/2000/svg">
<g clip-path="url(#clip0)">
<path d="M32.8993 5.01986C33.1772 4.65065 33.2218 4.16438 33.0155 3.75087C32.8093 3.3373 32.3939 3.08047 31.9318 3.08047H12.2035C11.9409 1.33937 10.436 0 8.62289 0C6.62525 0 5 1.62518 5 3.62289C5 5.62053 6.62518 7.24579 8.62289 7.24579C9.0898 7.24579 9.53626 7.15683 9.94651 6.99517C9.94651 6.99517 18.1847 17.9365 18.1848 17.9366C18.6233 18.5189 18.8665 19.2451 18.8665 19.9754V30.3004C18.8665 30.5829 18.8371 30.8654 18.779 31.1418C18.4383 32.7615 17.1425 34.0042 15.5261 34.3127C15.3254 34.3448 13.5419 34.6756 13.172 36.3399C13.1363 36.5005 13.1754 36.6687 13.2784 36.797C13.3813 36.9254 13.537 37 13.7015 37H22.1315C22.4311 37 22.6739 36.7572 22.6739 36.4576C22.6739 36.158 22.431 35.9151 22.1315 35.9151C22.1315 35.9151 14.6015 35.9151 14.6016 35.9151C14.9874 35.5365 15.4117 35.4482 15.9138 35.3411C18.2533 34.8422 19.9514 32.7223 19.9514 30.3004V19.9754C19.9514 19.8166 19.9419 19.6583 19.9249 19.5008H21.4338C21.4167 19.6583 21.4073 19.8167 21.4073 19.9754V30.3003C21.4073 32.7281 23.1143 34.85 25.4661 35.3456C25.939 35.4453 26.3985 35.5634 26.7571 35.9151H24.6844C24.3847 35.9151 24.1419 36.158 24.1419 36.4576C24.1419 36.7572 24.3848 37 24.6844 37H27.6571C27.8216 37 27.9772 36.9254 28.0802 36.797C28.1832 36.6686 28.2223 36.5005 28.1866 36.3399C27.9124 35.1066 26.8268 34.5237 25.6897 34.284C23.8369 33.8935 22.4922 32.2181 22.4922 30.3004V19.9754C22.4922 19.2468 22.7356 18.5187 23.1739 17.9366L32.8993 5.01986ZM8.62289 6.16079C7.22347 6.16079 6.08492 5.02232 6.08492 3.62282C6.08492 2.22332 7.22347 1.08485 8.62289 1.08485C9.83609 1.08485 10.8521 1.94077 11.1012 3.08039H9.42677C8.96464 3.08039 8.5494 3.3373 8.34308 3.75087C8.13683 4.16438 8.18135 4.65073 8.45928 5.01986L9.25738 6.07985C9.05446 6.13246 8.842 6.16079 8.62289 6.16079ZM21.6873 18.4159H19.6709C19.5629 18.1246 19.4244 17.8463 19.2579 17.5832C19.2573 17.5824 19.2568 17.5814 19.2562 17.5806C19.0207 17.2023 18.7386 16.8684 18.4721 16.5145C18.0404 15.9411 11.321 7.01728 11.1101 6.73624C11.9057 6.74636 12.6998 6.81631 13.488 6.9237C13.859 6.97428 14.229 7.03332 14.5978 7.09865C14.9611 7.16297 15.3173 7.23205 15.6755 7.30569C15.969 7.36604 16.2555 7.17605 16.3154 6.88258C16.3752 6.58904 16.1857 6.30257 15.8922 6.24274C14.0577 5.87028 12.1784 5.5891 10.3017 5.66324L9.32596 4.36737C9.28716 4.31585 9.298 4.26707 9.3139 4.2352C9.32979 4.20333 9.36231 4.16532 9.42677 4.16532H31.9318C31.9963 4.16532 32.0288 4.20333 32.0447 4.2352C32.0606 4.26707 32.0714 4.31585 32.0325 4.36737L30.5817 6.29434C30.0147 6.66347 29.4052 6.96243 28.7677 7.18205C27.2991 7.68805 25.7319 7.82138 24.1877 7.74644C22.2205 7.65098 20.2746 7.23379 18.3682 6.7934C18.0759 6.72591 17.7849 6.9078 17.7174 7.19961C17.65 7.49149 17.8318 7.78279 18.1237 7.85036C20.054 8.29646 22.0039 8.71126 23.9868 8.82363C25.7221 8.92199 27.469 8.769 29.121 8.20771C29.13 8.20468 29.1389 8.20157 29.1478 8.19846L22.3071 17.284C22.0514 17.6234 21.8349 18.0178 21.6873 18.4159Z" fill="#0F927C"/>
</g>
<defs>
<clipPath id="clip0">
<rect width="37" height="37" fill="white"/>
</clipPath>
</defs>
</svg>
