<svg width="54" height="54" viewBox="0 0 54 54" fill="none" xmlns="http://www.w3.org/2000/svg">
<path d="M50.9124 51.2349L48.5236 37.2495C48.2661 35.7426 47.1972 34.5322 45.7336 34.0907L39.2903 32.1466C39.1569 30.5715 38.5111 29.0855 37.4364 27.9094C36.5767 26.9686 35.4954 26.2836 34.3035 25.9056C34.5075 25.6792 34.6966 25.4536 34.8701 25.233C36.4024 23.2842 37.2227 21.1373 37.4315 19.6722H37.9286C39.2214 19.6722 40.2733 18.6205 40.2733 17.3276V16.1256C40.2733 15.2628 39.7879 14.481 39.058 14.0752V11.185C39.058 10.7482 38.7039 10.3942 38.2672 10.3942C37.8304 10.3942 37.4765 10.7481 37.4765 11.185V14.4296C37.1685 14.4831 36.801 14.5755 36.4251 14.7338C36.3867 14.7478 36.3492 14.764 36.3138 14.7836C36.2289 14.8223 36.1439 14.8631 36.0592 14.9091V8.53643C36.0592 6.77584 34.6269 5.34357 32.8663 5.34357H30.6836C29.9308 5.34357 29.1954 5.60588 28.6126 6.08238L28.3983 6.25746C28.0049 6.57914 27.5084 6.75633 27.0001 6.75633C26.4919 6.75633 25.9952 6.57914 25.6018 6.25746L25.3877 6.08238C24.8049 5.60598 24.0695 5.34357 23.3166 5.34357H21.1338C19.3732 5.34357 17.9409 6.77584 17.9409 8.53643V14.9091C17.8562 14.8631 17.7712 14.8223 17.6863 14.7836C17.6509 14.764 17.6135 14.7478 17.575 14.7338C17.1991 14.5755 16.8316 14.4831 16.5237 14.4296V6.22529C16.5237 3.66472 18.6069 1.5815 21.1675 1.5815H32.8325C35.3931 1.5815 37.4762 3.66472 37.4762 6.22529V7.46835C37.4762 7.90509 37.8303 8.25915 38.2669 8.25915C38.7036 8.25915 39.0578 7.9052 39.0578 7.46835V6.22529C39.0578 2.79271 36.265 0 32.8325 0H21.1675C17.7348 0 14.9422 2.79271 14.9422 6.22529V14.0753C14.2123 14.4811 13.7269 15.2628 13.7269 16.1257V17.3277C13.7269 18.6206 14.7787 19.6723 16.0716 19.6723H16.5687C16.7774 21.1374 17.5978 23.2843 19.1301 25.2331C19.3034 25.4535 19.4923 25.6789 19.6961 25.905C16.956 26.7754 14.9578 29.2389 14.7099 32.1466L8.26636 34.0907C6.80277 34.5322 5.73374 35.7426 5.4764 37.2495L4.50629 42.9288C4.43278 43.3594 4.72219 43.7678 5.15261 43.8414C5.58292 43.9151 5.99161 43.6256 6.06523 43.195L7.03533 37.5157C7.191 36.604 7.83774 35.8718 8.72315 35.6048L14.6827 33.8066V35.3708C13.3166 35.6223 12.1543 36.5606 11.6755 37.8608C11.5484 38.2058 11.4694 38.5672 11.4408 38.9346L10.8648 46.3275C10.8213 46.8843 11.014 47.4389 11.3932 47.8486C11.7724 48.2585 12.3101 48.4937 12.8686 48.4937H13.8545C14.2913 48.4937 14.6453 48.1397 14.6453 47.7029C14.6453 47.266 14.2913 46.9122 13.8545 46.9122H12.8686C12.7495 46.9122 12.635 46.8622 12.5541 46.7747C12.4733 46.6873 12.4323 46.5692 12.4416 46.4506L13.0175 39.0576C13.0349 38.835 13.0827 38.6161 13.1597 38.4072C13.4928 37.5028 14.3922 36.8903 15.3981 36.8833L15.5283 36.8823C15.5344 36.8822 15.5404 36.8822 15.5464 36.8822C16.524 36.8822 17.3894 37.4366 17.7544 38.2983C17.8568 38.54 17.9191 38.7954 17.9395 39.0576L18.5157 46.4507C18.5249 46.5692 18.4839 46.6873 18.4031 46.7748C18.3223 46.8621 18.2076 46.9122 18.0886 46.9122H17.1026C16.6659 46.9122 16.3118 47.2661 16.3118 47.7029C16.3118 48.1396 16.6659 48.4937 17.1026 48.4937H18.0886C18.647 48.4937 19.1849 48.2586 19.564 47.8486C19.9432 47.4387 20.1359 46.8842 20.0925 46.3276L19.5163 38.9346C19.4825 38.502 19.3797 38.0802 19.2106 37.6812C18.6897 36.4518 17.5759 35.597 16.2641 35.3657V33.3295L18.9824 32.5093C19.2297 33.0302 19.7198 34.1558 20.6907 36.5824C21.6691 39.0307 22.8853 42.1689 24.0517 45.2197C24.06 45.2454 24.0696 45.2704 24.0803 45.2948C24.8587 47.3315 25.6138 49.3264 26.2595 51.0472C26.3753 51.3558 26.6703 51.5602 26.9999 51.5602C27.3295 51.5602 27.6245 51.3558 27.7403 51.0472C28.386 49.3264 29.1411 47.3315 29.9195 45.2948C29.9304 45.2704 29.9399 45.2453 29.9482 45.2197C31.1137 42.1707 32.3293 39.0345 33.3073 36.5869C34.2794 34.1572 34.7699 33.0306 35.0173 32.5093L37.7357 33.3295V38.0002C35.8522 38.3661 34.4256 40.0272 34.4256 42.0161C34.4256 44.2722 36.261 46.1078 38.5172 46.1078C40.7734 46.1078 42.6089 44.2723 42.6089 42.0161C42.6089 40.0337 41.1916 38.3766 39.3172 38.0036V33.8067L45.2768 35.6049C46.1622 35.8719 46.8089 36.6041 46.9646 37.5158L49.3535 51.5012C49.3932 51.7332 49.3315 51.9599 49.1797 52.1397C49.028 52.3195 48.8149 52.4186 48.5796 52.4186H5.42029C5.18499 52.4186 4.97194 52.3196 4.82017 52.1397C4.66851 51.9599 4.6067 51.7333 4.64636 51.5012L5.43474 46.8857C5.50825 46.4552 5.21884 46.0467 4.78842 45.9732C4.35811 45.8994 3.94942 46.1891 3.8758 46.6195L3.08742 51.235C2.96983 51.924 3.16083 52.6254 3.61139 53.1596C4.06217 53.6937 4.72145 54 5.42029 54H48.5796C49.2784 54 49.9378 53.6937 50.3885 53.1595C50.839 52.6253 51.03 51.9238 50.9124 51.2349ZM37.4857 16.0406C37.9071 15.9356 38.2453 15.9375 38.2491 15.9376C38.3854 15.9394 38.5179 15.9075 38.6356 15.8458C38.6708 15.9335 38.6916 16.0277 38.6916 16.1257V17.3277C38.6916 17.7485 38.3492 18.0908 37.9284 18.0908H37.4857V16.0406ZM16.5141 18.0908H16.0715C15.6507 18.0908 15.3083 17.7485 15.3083 17.3277V16.1257C15.3083 16.0277 15.3292 15.9335 15.3643 15.8459C15.4819 15.9076 15.6144 15.9395 15.7507 15.9376C15.7568 15.9386 16.094 15.9368 16.5141 16.0411V18.0908ZM18.0956 18.9775V16.9C18.3353 16.9718 18.5973 16.962 18.8393 16.8611C19.2543 16.6879 19.5224 16.2857 19.5224 15.8363V8.53643C19.5224 7.64796 20.2453 6.92508 21.1338 6.92508H23.3164C23.7054 6.92508 24.0854 7.06061 24.3865 7.30677L24.6006 7.48185C25.2757 8.03387 26.1278 8.33773 26.9999 8.33773C27.8721 8.33773 28.7241 8.03377 29.3992 7.48185L29.6133 7.30677C29.9144 7.06061 30.2945 6.92508 30.6834 6.92508H32.8661C33.7546 6.92508 34.4775 7.64796 34.4775 8.53643V15.8364C34.4775 16.2857 34.7456 16.688 35.1606 16.8612C35.2992 16.919 35.4443 16.947 35.5881 16.947C35.6954 16.947 35.8018 16.9313 35.9042 16.9007V18.9775C35.9042 20.1321 35.106 22.3741 33.6267 24.2555C33.1367 24.8787 32.5069 25.5482 31.7314 26.1334C31.7068 26.1498 31.6833 26.1676 31.6608 26.1866C30.4594 27.0749 28.9146 27.7554 26.9999 27.7554C25.0853 27.7554 23.5405 27.0749 22.339 26.1865C22.3165 26.1676 22.2931 26.1498 22.2686 26.1335C21.4931 25.5482 20.8632 24.8787 20.3731 24.2555C18.8939 22.3742 18.0956 20.1321 18.0956 18.9775ZM32.1806 31.7535L26.9999 35.6257L21.8193 31.7535C22.333 31.1005 22.6209 30.2624 22.6209 29.5144V28.2397C23.8391 28.8949 25.2928 29.337 26.9999 29.337C28.7071 29.337 30.1608 28.8949 31.379 28.2397V29.5144C31.379 30.2624 31.6668 31.1005 32.1806 31.7535ZM20.4996 30.8708C20.0773 30.71 19.6091 30.6836 19.1662 30.8037C19.1468 30.8083 19.1279 30.8134 19.1094 30.8189L16.3774 31.6433C16.8395 29.3713 18.6844 27.5629 21.0394 27.2126V29.5144C21.0394 30.0105 20.8179 30.5234 20.4996 30.8708ZM22.6458 37.2188C22.6443 37.2151 22.6428 37.2114 22.6414 37.2078C22.6014 37.1064 22.5618 37.0065 22.5226 36.9076C22.5155 36.8897 22.5084 36.8719 22.5014 36.8542C22.463 36.7574 22.4249 36.6615 22.3874 36.5671C22.3847 36.5604 22.3821 36.5539 22.3795 36.5471C22.2623 36.2526 22.1493 35.97 22.0407 35.6993C22.0328 35.6797 22.0249 35.6597 22.017 35.6402C21.9857 35.5626 21.955 35.4861 21.9246 35.4106C21.9134 35.3829 21.9023 35.3554 21.8912 35.328C21.8617 35.2548 21.8324 35.1821 21.8035 35.1109C21.7948 35.0896 21.7864 35.0689 21.7779 35.0477C21.7254 34.9184 21.6742 34.7923 21.6242 34.6695C21.6107 34.6363 21.5969 34.6024 21.5835 34.5696C21.5639 34.5217 21.5448 34.4751 21.5256 34.4282C21.5049 34.3775 21.4842 34.3273 21.464 34.278C21.4564 34.2595 21.4485 34.24 21.4409 34.2217C21.4348 34.2069 21.4292 34.1933 21.4232 34.1786C21.3318 33.9567 21.245 33.7476 21.1627 33.5509C21.162 33.5493 21.1613 33.5477 21.1607 33.5461C21.1168 33.4414 21.0739 33.3391 21.0326 33.2416C21.0112 33.1911 20.9901 33.1414 20.9694 33.0927L25.425 36.4228L23.5632 37.2137C23.56 37.2151 23.5566 37.2164 23.5533 37.2179L22.776 37.5481C22.7319 37.4367 22.6888 37.3274 22.6458 37.2188ZM24.5326 42.0606C24.3764 41.6553 24.219 41.2477 24.0614 40.8405C23.8148 40.2035 23.5793 39.5979 23.3539 39.021L23.649 38.8956L24.8547 40.2972L24.5326 42.0606ZM27.0152 48.4877C26.9925 48.4406 26.9656 48.3962 26.9343 48.3549C26.577 47.4104 26.1235 46.2154 25.6216 44.9005L26.3598 40.8584H27.64L28.3783 44.9005C27.8523 46.278 27.3799 47.5236 27.0152 48.4877ZM27.9366 39.277H26.0633L25.1768 38.2466L26.9999 37.4721L28.8231 38.2466L27.9366 39.277ZM29.9385 40.8405C29.7808 41.2477 29.6235 41.6553 29.4673 42.0606L29.1452 40.2971L30.3509 38.8955L30.646 39.0209C30.4206 39.5978 30.1851 40.2035 29.9385 40.8405ZM32.9674 33.2416C32.9282 33.334 32.8875 33.431 32.8461 33.5299C32.8407 33.5428 32.8352 33.5557 32.8298 33.5687C32.7888 33.6668 32.747 33.767 32.7038 33.8713C32.7009 33.8781 32.698 33.8854 32.6951 33.8924C32.6578 33.9823 32.6195 34.0752 32.5806 34.1698C32.5733 34.1875 32.5665 34.2038 32.5592 34.2217C32.5505 34.2429 32.5413 34.2653 32.5325 34.2867C32.5152 34.3289 32.4976 34.3719 32.4799 34.415C32.4582 34.468 32.4365 34.5209 32.4143 34.5752C32.4072 34.5925 32.3999 34.6105 32.3928 34.6279C32.3377 34.7628 32.2812 34.9018 32.2234 35.0446C32.2143 35.067 32.2053 35.0889 32.1963 35.1116C32.1677 35.1822 32.1386 35.2542 32.1094 35.3267C32.098 35.355 32.0865 35.3833 32.075 35.412C32.0448 35.4868 32.0143 35.5625 31.9835 35.6393C31.9749 35.6607 31.9661 35.6826 31.9575 35.7041C31.8502 35.9712 31.739 36.2497 31.6235 36.54C31.6197 36.5496 31.6159 36.5589 31.6121 36.5687C31.5747 36.6624 31.537 36.7578 31.4988 36.8538C31.4917 36.8718 31.4846 36.8897 31.4774 36.9077C31.438 37.0071 31.3982 37.1075 31.3579 37.2095C31.3572 37.2114 31.3564 37.2133 31.3557 37.2151C31.3122 37.325 31.2686 37.4355 31.2241 37.5484L30.446 37.2178C30.4433 37.2167 30.4405 37.2155 30.4379 37.2143L28.5751 36.423L33.0306 33.0929C33.0098 33.1414 32.9887 33.191 32.9674 33.2416ZM34.8905 30.819C34.8904 30.819 34.8902 30.8189 34.89 30.8189C34.8894 30.8187 34.8887 30.8186 34.888 30.8183C34.4293 30.6806 33.9399 30.7034 33.5004 30.8708C33.182 30.5234 32.9606 30.0105 32.9606 29.5144V27.2115C35.3304 27.5608 37.1697 29.3522 37.6257 31.6442L34.8905 30.819ZM41.0274 42.0161C41.0274 43.4003 39.9013 44.5263 38.5172 44.5263C37.1332 44.5263 36.0071 43.4003 36.0071 42.0161C36.0071 40.6319 37.1332 39.506 38.5172 39.506C39.9013 39.506 41.0274 40.6319 41.0274 42.0161Z" fill="#676767"/>
</svg>
