<svg width="66" height="66" viewBox="0 0 66 66" fill="none" xmlns="http://www.w3.org/2000/svg">
<g clip-path="url(#clip0)">
<path d="M40.6117 46.6238H36.9937C36.4597 46.6238 36.0269 47.0566 36.0269 47.5906C36.0269 48.1246 36.4597 48.5574 36.9937 48.5574H40.6117C41.1456 48.5574 41.5785 48.1246 41.5785 47.5906C41.5785 47.0566 41.1456 46.6238 40.6117 46.6238Z" fill="#676767"/>
<path d="M61.9073 36.2736L56.6426 34.243L53.9584 31.5587C53.7861 31.3864 53.564 31.2931 53.3371 31.2785V29.1426C54.6022 27.7938 55.5027 26.0856 55.8661 24.1613C56.0917 24.1715 56.3195 24.1533 56.5442 24.1074C57.8305 23.8441 58.7642 22.6505 58.7642 21.2697V20.5647C58.7642 19.7658 58.4402 19.0326 57.9128 18.5083C58.7665 13.8651 58.0633 10.0812 55.8701 7.54856C53.7487 5.09894 50.3308 3.92808 45.9866 4.16308C41.9729 4.38003 39.3819 6.22675 38.561 6.90235C38.1116 6.95572 37.3462 7.1135 36.5715 7.57834C35.4977 8.22261 34.2178 9.576 34.2178 12.3646C34.2178 14.7974 34.6065 16.8284 34.8881 17.9807C33.9445 18.4404 33.3132 19.4366 33.3132 20.5755V21.2695C33.3132 22.6504 34.2469 23.8439 35.5333 24.1073C35.7579 24.1533 35.9858 24.1713 36.2113 24.1612C36.5747 26.0855 37.4754 27.7936 38.7403 29.1425V31.2784C38.5134 31.2929 38.2912 31.3863 38.119 31.5586L35.4348 34.2428L30.1701 36.2735C29.7147 36.4491 29.2796 36.6768 28.8772 36.9503C28.4355 37.2504 28.3208 37.8516 28.6208 38.2932C28.8078 38.5686 29.1119 38.7168 29.4213 38.7168C29.6083 38.7168 29.7973 38.6625 29.9637 38.5496C30.2443 38.359 30.5479 38.2001 30.8659 38.0774L35.7519 36.1928L39.4876 41.7965C39.9506 42.4912 40.6929 42.9368 41.5237 43.0191C41.6161 43.0282 41.7085 43.0327 41.8003 43.0327C42.2813 43.0327 42.7479 42.9063 43.1609 42.6726L42.3593 60.8572C42.3357 61.3906 42.7491 61.8422 43.2826 61.8656C43.297 61.8663 43.3115 61.8665 43.3259 61.8665C43.8403 61.8665 44.2682 61.4611 44.291 60.9423L45.0351 44.0631H47.0422L47.7862 60.9423C47.809 61.4612 48.237 61.8665 48.7514 61.8665C48.7658 61.8665 48.7802 61.8663 48.7947 61.8656C49.3281 61.8422 49.7415 61.3906 49.718 60.8572L48.9164 42.6726C49.3294 42.9063 49.7959 43.0327 50.277 43.0327C50.3687 43.0327 50.4612 43.0282 50.5536 43.0191C51.3844 42.9368 52.1265 42.4912 52.5897 41.7965L56.3254 36.1928L61.2114 38.0774C61.8966 38.3417 62.4865 38.7633 62.9503 39.2894L59.6076 42.6321C58.3999 43.8398 57.7349 45.4455 57.7349 47.1532V60.8998C57.7349 61.4338 58.1677 61.8666 58.7017 61.8666C59.2356 61.8666 59.6685 61.4338 59.6685 60.8998V47.1532C59.6685 45.962 60.1324 44.8418 60.9748 43.9994L63.9085 41.0657C64.0263 41.498 64.0813 41.9524 64.0628 42.4169L63.3139 60.8607C63.2923 61.3942 63.7072 61.8442 64.2407 61.866C64.2541 61.8665 64.2673 61.8668 64.2806 61.8668C64.7964 61.8668 65.2249 61.4593 65.2459 60.9393L65.995 42.4951C66.1047 39.7591 64.462 37.259 61.9073 36.2736ZM38.1039 23.7626C37.9334 22.8343 37.0738 22.1596 36.1461 22.2283C36.0727 22.2336 35.9972 22.2285 35.9211 22.213C35.5367 22.1344 35.2468 21.7287 35.2468 21.2697V20.5754C35.2468 20.1269 35.5465 19.7229 35.929 19.6557C36.2518 19.599 36.5609 19.7175 36.7565 19.9726C36.934 20.204 37.1708 20.3695 37.4411 20.451C37.8371 20.5706 38.2737 20.5003 38.6094 20.2634C39.2139 19.8366 39.7473 19.3152 40.1948 18.7134C40.5134 18.2849 40.4242 17.6793 39.9959 17.3608C39.5673 17.0422 38.9618 17.1312 38.6431 17.5597C38.42 17.8598 38.1679 18.1322 37.8903 18.3732C37.5838 18.1111 37.2257 17.9216 36.8419 17.8134C36.5935 16.8618 36.1514 14.8232 36.1514 12.3644C36.1514 10.8836 36.6078 9.84323 37.508 9.27217C38.2104 8.82654 38.9538 8.80875 38.9533 8.80862C39.2004 8.80862 39.4409 8.7113 39.6204 8.54153C39.644 8.51936 42.0206 6.31376 46.0907 6.09372C49.8164 5.89262 52.6925 6.83313 54.4082 8.81417C56.1373 10.8109 56.7132 13.8765 56.0885 17.7134C55.8295 17.7042 55.546 17.7238 55.2639 17.7709L54.3556 15.5895C54.1702 15.1445 53.6847 14.9042 53.2184 15.0258C53.1285 15.0493 44.2003 17.3126 40.4567 12.6518C40.1225 12.2356 39.514 12.1691 39.0975 12.5035C38.6813 12.8379 38.6148 13.4463 38.9493 13.8627C42.7721 18.6222 50.3575 17.5868 52.8826 17.0819L53.585 18.7686C53.887 19.4937 54.6597 19.8897 55.4212 19.7101C55.7338 19.6365 56.0325 19.6349 56.1447 19.657C56.5356 19.7349 56.8305 20.1248 56.8305 20.5644V21.2695C56.8305 21.7287 56.5405 22.1342 56.1561 22.2129C56.0802 22.2285 56.0043 22.2336 55.9312 22.2282C55.0036 22.1607 54.144 22.8341 53.9734 23.7626C53.2701 27.5916 49.933 30.3709 46.0386 30.3709C42.1442 30.3709 38.8072 27.5916 38.1039 23.7626ZM42.3928 40.8525C42.1476 41.0977 41.8626 41.1097 41.7143 41.095C41.5662 41.0804 41.2889 41.0126 41.0966 40.7241L37.3332 35.0791L38.8467 33.5656L44.6243 38.621L42.3928 40.8525ZM45.1203 42.1296L45.1788 40.8008L46.0385 39.9412L46.8982 40.8008L46.9567 42.1296H45.1203ZM46.0386 37.2892L40.6739 32.595V30.7447C42.2337 31.7366 44.0791 32.3045 46.0386 32.3045C47.9982 32.3045 49.8437 31.7366 51.4035 30.7447V32.595L46.0386 37.2892ZM50.9809 40.7241C50.7885 41.0128 50.5112 41.0804 50.3632 41.095C50.2148 41.1097 49.9298 41.0977 49.6846 40.8524L47.4531 38.6209L53.2307 33.5654L54.7442 35.0789L50.9809 40.7241Z" fill="#676767"/>
<path d="M30.6598 41.2071L25.939 39.1466L23.3584 36.566C23.1855 36.393 22.9633 36.3002 22.737 36.2857V34.7648C24.9425 33.3155 26.5564 31.0105 27.075 28.2639C27.329 28.2752 27.5854 28.2508 27.838 28.1912C29.0751 27.8984 29.973 26.7129 29.973 25.3722V24.6674C29.973 23.6879 29.487 22.8069 28.734 22.2899C28.9555 21.4126 29.0684 20.515 29.0684 19.6115C29.0684 15.6061 26.9033 12.0782 23.6398 10.0526C23.605 6.70962 20.7516 4 17.2476 4C13.7435 4 10.8901 6.70962 10.8553 10.0526C7.59192 12.0782 5.4268 15.6062 5.4268 19.6115C5.4268 20.5123 5.53895 21.4073 5.75912 22.2822C5.00657 22.7965 4.52226 23.6817 4.52226 24.6779V25.3722C4.52226 26.7129 5.4201 27.8984 6.65722 28.1912C6.90987 28.251 7.16614 28.2752 7.42022 28.2639C7.93881 31.0105 9.55285 33.3155 11.7583 34.7648V36.2857C11.5321 36.3002 11.3099 36.393 11.137 36.566L8.5564 39.1466L3.83571 41.2071C1.43379 42.2557 -0.10536 44.7193 0.00562917 47.3378L0.576557 60.8077C0.5986 61.3272 1.0267 61.7336 1.54181 61.7336C1.5556 61.7336 1.56953 61.7333 1.58345 61.7327C2.11699 61.7101 2.53104 61.2593 2.50848 60.7258L1.93743 47.2558C1.90069 46.3879 2.12627 45.5457 2.55038 44.8209L5.08791 47.8659C5.88984 48.8282 6.33134 50.0479 6.33134 51.3004V60.7668C6.33134 61.3007 6.76421 61.7336 7.29814 61.7336C7.83207 61.7336 8.26494 61.3007 8.26494 60.7668V51.3004C8.26494 49.5965 7.66411 47.9372 6.5733 46.6282L3.87567 43.3909C4.10499 43.2329 4.34876 43.0929 4.60928 42.9792L8.72346 41.1833L11.6308 45.9024C11.9179 46.3684 12.3925 46.6844 12.9332 46.7695C13.0304 46.7848 13.1278 46.7923 13.2249 46.7923C13.6669 46.7923 14.0975 46.6357 14.4388 46.3443L16.2811 44.7723V60.7667C16.2811 61.3006 16.714 61.7335 17.2479 61.7335C17.7819 61.7335 18.2147 61.3006 18.2147 60.7667V44.7726L20.0569 46.3446C20.3983 46.6359 20.8288 46.7925 21.2709 46.7925C21.3678 46.7925 21.4654 46.7849 21.5626 46.7697C22.1032 46.6846 22.5778 46.3687 22.8649 45.9027L25.7723 41.1834L29.8865 42.9793C30.1469 43.093 30.3908 43.233 30.6201 43.3911L27.9224 46.6283C26.8316 47.9372 26.2308 49.5966 26.2308 51.3005V60.7669C26.2308 61.3009 26.6637 61.7337 27.1976 61.7337C27.7315 61.7337 28.1644 61.3009 28.1644 60.7669V51.3005C28.1644 50.0481 28.606 48.8284 29.4078 47.8661L31.9454 44.821C32.3695 45.5459 32.5951 46.388 32.5583 47.256L31.9874 60.7259C31.9648 61.2594 32.3789 61.7101 32.9124 61.7328C32.9264 61.7335 32.9401 61.7337 32.9541 61.7337C33.4692 61.7337 33.8973 61.3274 33.9193 60.8078L34.4902 47.3379C34.6011 44.7195 33.0618 42.2557 30.6598 41.2071ZM17.2478 5.9336C19.3046 5.9336 21.04 7.24574 21.5532 9.02362C20.2185 8.51986 18.7662 8.24284 17.2478 8.24284C15.7294 8.24284 14.2772 8.51986 12.9425 9.02362C13.4556 7.24574 15.1908 5.9336 17.2478 5.9336ZM9.31296 27.8654C9.14254 26.9369 8.28157 26.2625 7.35525 26.331C7.27313 26.3368 7.18831 26.3299 7.10272 26.3095C6.73405 26.2222 6.45599 25.8193 6.45599 25.3722V24.6779C6.45599 24.2295 6.7557 23.8255 7.13817 23.7583C7.46095 23.7016 7.76994 23.8202 7.96536 24.075C8.14287 24.3066 8.37967 24.4721 8.65025 24.5538C9.04612 24.6734 9.48298 24.6032 9.8184 24.3661C10.4138 23.9459 10.9403 23.4336 11.3832 22.8437C11.7038 22.4168 11.6175 21.8107 11.1906 21.4902C10.7635 21.1696 10.1576 21.2558 9.83696 21.6828C9.61769 21.9748 9.37083 22.2402 9.09936 22.4759C8.68569 22.1222 8.17845 21.9008 7.64039 21.8336C7.45515 21.1054 7.3604 20.3607 7.3604 19.6116C7.3604 14.4092 11.7958 10.1766 17.2478 10.1766C22.6997 10.1766 27.1351 14.4091 27.1351 19.6116C27.1351 20.3593 27.0409 21.1024 26.8563 21.8294C26.6018 21.8496 26.3432 21.8912 26.1038 21.9534L25.3771 21.3557C25.0119 21.0554 24.5522 20.9051 24.087 20.9328C22.6659 21.0167 15.3881 21.2089 11.6542 16.7402C11.3118 16.3306 10.7022 16.2759 10.2924 16.6183C9.88259 16.9607 9.82807 17.5704 10.1704 17.9801C12.012 20.184 14.713 21.6743 18.1982 22.4096C20.8667 22.9725 23.2389 22.9178 24.1683 22.8649L25.3022 23.7972C25.6142 24.0539 26.0519 24.0901 26.4014 23.8867C26.5653 23.7974 27.1145 23.712 27.3541 23.7599C27.7451 23.8376 28.0398 24.2277 28.0398 24.6674V25.3722C28.0398 25.8194 27.7617 26.2224 27.393 26.3095C27.3076 26.3297 27.2226 26.3371 27.1405 26.3309C26.2147 26.2636 25.3532 26.9369 25.1827 27.8653C24.4794 31.6945 21.1423 34.4737 17.2479 34.4737C13.3534 34.4737 10.0163 31.6945 9.31296 27.8654ZM13.2389 44.8264L10.3311 40.1064L11.8207 38.6168L15.8243 42.6203L13.2389 44.8264ZM17.2478 41.3092L13.692 37.7535V35.7533C14.8021 36.1759 16.0015 36.4073 17.2478 36.4073C18.4941 36.4073 19.6936 36.1759 20.8036 35.7535V37.7535L17.2478 41.3092ZM21.2567 44.8264L18.6713 42.6203L22.6749 38.6168L24.1646 40.1064L21.2567 44.8264Z" fill="#676767"/>
<path d="M13.63 50.8879H10.9165C10.3826 50.8879 9.94971 51.3208 9.94971 51.8547C9.94971 52.3887 10.3826 52.8215 10.9165 52.8215H13.63C14.1639 52.8215 14.5968 52.3887 14.5968 51.8547C14.5968 51.3208 14.1639 50.8879 13.63 50.8879Z" fill="#676767"/>
</g>
<defs>
<clipPath id="clip0">
<rect width="66" height="66" fill="white"/>
</clipPath>
</defs>
</svg>
