<svg width="57" height="57" viewBox="0 0 57 57" fill="none" xmlns="http://www.w3.org/2000/svg">
<path d="M28.5001 25.995C28.3438 25.995 28.1911 26.0102 28.0427 26.0377L20.4004 12.8011C20.17 12.4016 19.6591 12.2649 19.2599 12.4954C18.8605 12.7259 18.7237 13.2366 18.9543 13.6359L26.5972 26.8737C26.2223 27.3117 25.9952 27.8796 25.9952 28.4998C25.9952 29.5882 26.6934 30.5164 27.6652 30.8611V49.4853C27.6652 49.9465 28.0389 50.3202 28.5001 50.3202C28.9613 50.3202 29.3351 49.9465 29.3351 49.4853V30.8612C30.3069 30.5165 31.005 29.5884 31.005 28.4999C31.005 27.1188 29.8813 25.995 28.5001 25.995ZM28.5001 29.3349C28.0397 29.3349 27.6652 28.9604 27.6652 28.4999C27.6652 28.0394 28.0397 27.6649 28.5001 27.6649C28.9606 27.6649 29.3351 28.0394 29.3351 28.4999C29.3351 28.9604 28.9606 29.3349 28.5001 29.3349Z" fill="#676767"/>
<path d="M48.6526 8.34738C43.2697 2.96456 36.1126 0 28.5 0C20.8874 0 13.7303 2.96456 8.34738 8.34738C2.96445 13.7302 0 20.8874 0 28.5C0 36.1126 2.96456 43.2697 8.34738 48.6526C13.7302 54.0356 20.8874 57 28.5 57C36.1126 57 43.2697 54.0354 48.6526 48.6526C54.0356 43.2698 57 36.1126 57 28.5C57 20.8874 54.0354 13.7303 48.6526 8.34738ZM28.5 55.3301C13.7058 55.3301 1.66992 43.2942 1.66992 28.5C1.66992 13.7058 13.7058 1.66992 28.5 1.66992C43.2942 1.66992 55.3301 13.7058 55.3301 28.5C55.3301 43.2942 43.2942 55.3301 28.5 55.3301Z" fill="#676767"/>
<path d="M28.5 8.34961C28.9611 8.34961 29.335 7.97578 29.335 7.51465C29.335 7.05351 28.9611 6.67969 28.5 6.67969C28.0389 6.67969 27.665 7.05351 27.665 7.51465C27.665 7.97578 28.0389 8.34961 28.5 8.34961Z" fill="#676767"/>
<path d="M18.0073 11.1606C18.4685 11.1606 18.8423 10.7868 18.8423 10.3257C18.8423 9.86455 18.4685 9.49072 18.0073 9.49072C17.5462 9.49072 17.1724 9.86455 17.1724 10.3257C17.1724 10.7868 17.5462 11.1606 18.0073 11.1606Z" fill="#676767"/>
<path d="M10.3257 18.8423C10.7868 18.8423 11.1606 18.4685 11.1606 18.0073C11.1606 17.5462 10.7868 17.1724 10.3257 17.1724C9.86455 17.1724 9.49072 17.5462 9.49072 18.0073C9.49072 18.4685 9.86455 18.8423 10.3257 18.8423Z" fill="#676767"/>
<path d="M7.51465 29.335C7.97578 29.335 8.34961 28.9611 8.34961 28.5C8.34961 28.0389 7.97578 27.665 7.51465 27.665C7.05351 27.665 6.67969 28.0389 6.67969 28.5C6.67969 28.9611 7.05351 29.335 7.51465 29.335Z" fill="#676767"/>
<path d="M10.3257 39.8276C10.7868 39.8276 11.1606 39.4538 11.1606 38.9927C11.1606 38.5315 10.7868 38.1577 10.3257 38.1577C9.86455 38.1577 9.49072 38.5315 9.49072 38.9927C9.49072 39.4538 9.86455 39.8276 10.3257 39.8276Z" fill="#676767"/>
<path d="M18.0073 47.5093C18.4685 47.5093 18.8423 47.1355 18.8423 46.6743C18.8423 46.2132 18.4685 45.8394 18.0073 45.8394C17.5462 45.8394 17.1724 46.2132 17.1724 46.6743C17.1724 47.1355 17.5462 47.5093 18.0073 47.5093Z" fill="#676767"/>
<path d="M38.9927 47.5093C39.4538 47.5093 39.8276 47.1355 39.8276 46.6743C39.8276 46.2132 39.4538 45.8394 38.9927 45.8394C38.5315 45.8394 38.1577 46.2132 38.1577 46.6743C38.1577 47.1355 38.5315 47.5093 38.9927 47.5093Z" fill="#676767"/>
<path d="M46.6743 39.8276C47.1355 39.8276 47.5093 39.4538 47.5093 38.9927C47.5093 38.5315 47.1355 38.1577 46.6743 38.1577C46.2132 38.1577 45.8394 38.5315 45.8394 38.9927C45.8394 39.4538 46.2132 39.8276 46.6743 39.8276Z" fill="#676767"/>
<path d="M49.4854 29.335C49.9465 29.335 50.3203 28.9611 50.3203 28.5C50.3203 28.0389 49.9465 27.665 49.4854 27.665C49.0242 27.665 48.6504 28.0389 48.6504 28.5C48.6504 28.9611 49.0242 29.335 49.4854 29.335Z" fill="#676767"/>
<path d="M46.6743 18.8423C47.1355 18.8423 47.5093 18.4685 47.5093 18.0073C47.5093 17.5462 47.1355 17.1724 46.6743 17.1724C46.2132 17.1724 45.8394 17.5462 45.8394 18.0073C45.8394 18.4685 46.2132 18.8423 46.6743 18.8423Z" fill="#676767"/>
<path d="M38.9927 11.1606C39.4538 11.1606 39.8276 10.7868 39.8276 10.3257C39.8276 9.86455 39.4538 9.49072 38.9927 9.49072C38.5315 9.49072 38.1577 9.86455 38.1577 10.3257C38.1577 10.7868 38.5315 11.1606 38.9927 11.1606Z" fill="#676767"/>
<path d="M46.2909 10.7091C41.5387 5.95695 35.2204 3.33984 28.5 3.33984C22.4203 3.33984 16.5506 5.53835 11.9724 9.53013C11.6249 9.83328 11.5888 10.3606 11.8917 10.7082C12.1949 11.0559 12.7224 11.0918 13.0698 10.7888C17.3439 7.06221 22.8237 5.00977 28.5 5.00977C41.4526 5.00977 51.9902 15.5474 51.9902 28.5C51.9902 41.4526 41.4526 51.9902 28.5 51.9902C15.5474 51.9902 5.00977 41.4526 5.00977 28.5C5.00977 22.8237 7.06221 17.3439 10.7888 13.0698C11.092 12.7222 11.0558 12.1949 10.7082 11.8917C10.3609 11.5887 9.83339 11.6247 9.53013 11.9724C5.53835 16.5506 3.33984 22.4203 3.33984 28.5C3.33984 35.2204 5.95695 41.5387 10.7091 46.2909C15.4613 51.0431 21.7796 53.6602 28.5 53.6602C35.2204 53.6602 41.5387 51.0431 46.2909 46.2909C51.0431 41.5387 53.6602 35.2204 53.6602 28.5C53.6602 21.7796 51.0431 15.4613 46.2909 10.7091Z" fill="#676767"/>
</svg>
