<svg width="34" height="34" viewBox="0 0 34 34" fill="none" xmlns="http://www.w3.org/2000/svg">
<path d="M34 5.1V0.566667C34.0002 0.253867 33.7468 0.000212634 33.434 1.33531e-07C33.4338 1.33531e-07 33.4335 1.33531e-07 33.4333 1.33531e-07H28.9V1.13333H32.0654L18.56 14.6387C18.2587 14.4378 17.9214 14.297 17.5667 14.224V1.93467L19.9994 4.36737L20.8006 3.56603L17.4006 0.166033C17.1795 -0.0552499 16.8208 -0.0553207 16.5996 0.165821C16.5995 0.165892 16.5994 0.165963 16.5994 0.166033L13.1994 3.56603L14.0007 4.3673L16.4333 1.93467V14.224C16.0786 14.2971 15.7414 14.4379 15.44 14.6388L1.93467 1.13333H5.1V1.33531e-07H0.566667C0.253867 -0.000212366 0.000212634 0.253229 1.33531e-07 0.566029C1.33531e-07 0.566242 1.33531e-07 0.566454 1.33531e-07 0.566667V5.1H1.13333V1.93467L14.6387 15.44C14.4378 15.7414 14.297 16.0787 14.224 16.4333H1.93467L4.36737 14.0006L3.56603 13.1994L0.166033 16.5994C-0.0552499 16.8205 -0.0553207 17.1792 0.165821 17.4004C0.165892 17.4005 0.165963 17.4006 0.166033 17.4006L3.56603 20.8006L4.3673 19.9994L1.93467 17.5667H14.224C14.2971 17.9214 14.4379 18.2586 14.6388 18.56L1.13333 32.0654V28.9H1.33531e-07V33.4333C-0.000212366 33.7461 0.253229 33.9998 0.566029 34C0.566242 34 0.566454 34 0.566667 34H5.1V32.8667H1.93467L15.44 19.3613C15.7414 19.5622 16.0787 19.703 16.4333 19.776V32.0653L14.0006 29.6326L13.1994 30.434L16.5994 33.834C16.8205 34.0553 17.1792 34.0553 17.4005 33.8342C17.4006 33.8341 17.4006 33.834 17.4007 33.834L20.8007 30.434L19.9994 29.6327L17.5667 32.0654V19.7761C17.9214 19.703 18.2586 19.5622 18.56 19.3613L32.0654 32.8667H28.9V34H33.4333C33.7461 34.0002 33.9998 33.7468 34 33.434C34 33.4338 34 33.4335 34 33.4333V28.9H32.8667V32.0654L19.3613 18.56C19.5622 18.2586 19.703 17.9213 19.776 17.5667H32.0653L29.6326 19.9994L30.434 20.8006L33.834 17.4006C34.0553 17.1795 34.0553 16.8208 33.8342 16.5996C33.8341 16.5995 33.834 16.5994 33.834 16.5994L30.434 13.1994L29.6327 14.0007L32.0654 16.4333H19.7761C19.703 16.0786 19.5622 15.7414 19.3613 15.44L32.8667 1.93467V5.1H34ZM17 18.7C16.0611 18.7 15.3 17.9389 15.3 17C15.3 16.0611 16.0611 15.3 17 15.3C17.9389 15.3 18.7 16.0611 18.7 17C18.699 17.9385 17.9385 18.699 17 18.7Z" fill="#0F927C"/>
</svg>
