<svg width="46" height="46" viewBox="0 0 46 46" fill="none" xmlns="http://www.w3.org/2000/svg">
<g clip-path="url(#clip0)">
<path d="M22.8835 11.2545L22.3536 14.137C22.3361 14.2324 22.3471 14.3306 22.3854 14.4204C22.4237 14.5102 22.4878 14.5881 22.5704 14.6452C22.653 14.7023 22.7509 14.7364 22.8529 14.7436C22.9549 14.7509 23.057 14.7309 23.1476 14.686L25.8856 13.3309L28.6167 14.6986C28.7071 14.7439 28.809 14.7643 28.911 14.7575C29.0131 14.7508 29.111 14.7172 29.1939 14.6605C29.2768 14.6038 29.3413 14.5262 29.3801 14.4366C29.4189 14.347 29.4305 14.2489 29.4135 14.1534L28.8986 11.2686L31.1161 9.2315C31.1895 9.16405 31.2415 9.07849 31.2663 8.9845C31.2911 8.89051 31.2875 8.79183 31.2562 8.69962C31.2248 8.60742 31.1668 8.52537 31.0888 8.46274C31.0107 8.40011 30.9157 8.35941 30.8146 8.34524L27.7587 7.91725L26.3981 5.29049C26.3531 5.20352 26.2832 5.13023 26.1965 5.0789C26.1097 5.02756 26.0095 5.00023 25.9073 5H25.9059C25.8038 5 25.7038 5.02699 25.617 5.07793C25.5303 5.12887 25.4602 5.20174 25.4149 5.28832L24.041 7.90869L20.9824 8.3224C20.8812 8.3361 20.786 8.37636 20.7076 8.43862C20.6292 8.50089 20.5708 8.58268 20.539 8.67474C20.5071 8.7668 20.5031 8.86546 20.5274 8.95957C20.5517 9.05368 20.6032 9.13948 20.6763 9.20727L22.8835 11.2545ZM24.4813 8.89809C24.5693 8.88619 24.6529 8.8542 24.725 8.80487C24.797 8.75555 24.8553 8.69037 24.8948 8.61496L25.903 6.69231L26.9012 8.61929C26.9404 8.69485 26.9983 8.76027 27.0701 8.80991C27.1419 8.85955 27.2253 8.89192 27.3132 8.90424L29.5557 9.218L27.9286 10.7134C27.8648 10.772 27.817 10.8444 27.7894 10.9244C27.7617 11.0044 27.755 11.0896 27.7698 11.1726L28.1476 13.2892L26.1437 12.2855C26.0652 12.2461 25.9777 12.2255 25.8888 12.2253C25.7999 12.2251 25.7123 12.2454 25.6335 12.2844L23.6246 13.2786L24.0132 11.1637C24.0284 11.0808 24.0221 10.9956 23.9948 10.9155C23.9676 10.8354 23.9202 10.7627 23.8567 10.7038L22.2373 9.20165L24.4813 8.89809Z" fill="#0F927C"/>
<path d="M37.1269 13.1575L36.6615 15.6898C36.644 15.7852 36.655 15.8834 36.6933 15.9732C36.7316 16.063 36.7957 16.1409 36.8783 16.198C36.9609 16.2551 37.0588 16.2892 37.1608 16.2965C37.2628 16.3037 37.3649 16.2837 37.4556 16.2389L39.8611 15.0483L42.2603 16.2499C42.3507 16.2951 42.4527 16.3155 42.5547 16.3088C42.6567 16.3021 42.7547 16.2684 42.8376 16.2117C42.9205 16.155 42.985 16.0775 43.0238 15.9879C43.0626 15.8983 43.0742 15.8002 43.0572 15.7047L42.6049 13.1705L44.553 11.3808C44.6264 11.3134 44.6784 11.2278 44.7032 11.1338C44.7279 11.0398 44.7244 10.9412 44.6931 10.849C44.6617 10.7568 44.6037 10.6747 44.5257 10.6121C44.4476 10.5495 44.3526 10.5088 44.2514 10.4946L41.5665 10.1189L40.3713 7.81098C40.3262 7.72401 40.2564 7.65071 40.1696 7.59938C40.0828 7.54805 39.9826 7.52073 39.8803 7.52051H39.8791C39.777 7.52051 39.6769 7.5475 39.5902 7.59844C39.5034 7.64938 39.4334 7.72224 39.388 7.80882L38.181 10.1105L35.4941 10.4739C35.3929 10.4876 35.2977 10.5279 35.2193 10.5901C35.141 10.6524 35.0826 10.7341 35.0507 10.8262C35.0188 10.9182 35.0148 11.0169 35.0391 11.111C35.0633 11.2051 35.1149 11.2909 35.188 11.3587L37.1269 13.1575ZM38.6212 11.1001C38.7092 11.0882 38.7928 11.0562 38.8649 11.0069C38.9369 10.9576 38.9952 10.8924 39.0348 10.817L39.8759 9.21275L40.709 10.8209C40.7481 10.8964 40.8061 10.9619 40.8779 11.0115C40.9496 11.0611 41.0331 11.0935 41.121 11.1058L42.9921 11.3677L41.6345 12.6149C41.5707 12.6735 41.5229 12.7459 41.4953 12.8259C41.4676 12.9059 41.4609 12.991 41.4757 13.074L41.7909 14.8402L40.1188 14.0029C40.0403 13.9635 39.9528 13.9428 39.8639 13.9426C39.775 13.9424 39.6874 13.9627 39.6086 14.0017L37.9323 14.8313L38.2565 13.0661C38.2718 12.9832 38.2655 12.898 38.2382 12.8179C38.2109 12.7378 38.1635 12.6652 38.1 12.6063L36.7488 11.3536L38.6212 11.1001Z" fill="#0F927C"/>
<path d="M9.17768 13.1575L8.71241 15.6897C8.69487 15.7852 8.70588 15.8834 8.74419 15.9732C8.78251 16.063 8.8466 16.1409 8.92923 16.198C9.01185 16.2552 9.10971 16.2893 9.21173 16.2965C9.31375 16.3037 9.41587 16.2837 9.50653 16.2388L11.9119 15.0483L14.3115 16.2498C14.4019 16.2951 14.5039 16.3155 14.6059 16.3088C14.7079 16.3021 14.8059 16.2685 14.8888 16.2118C14.9717 16.155 15.0362 16.0775 15.075 15.9879C15.1139 15.8983 15.1254 15.8002 15.1084 15.7047L14.6561 13.1705L16.6041 11.3808C16.6775 11.3133 16.7296 11.2278 16.7543 11.1338C16.7791 11.0398 16.7756 10.9411 16.7442 10.8489C16.7128 10.7567 16.6549 10.6747 16.5768 10.6121C16.4988 10.5494 16.4038 10.5087 16.3026 10.4946L13.617 10.1185L12.422 7.81098C12.3769 7.72402 12.3071 7.65073 12.2203 7.5994C12.1336 7.54807 12.0334 7.52074 11.9311 7.52051H11.9297C11.8277 7.52051 11.7276 7.5475 11.6409 7.59844C11.5541 7.64938 11.4841 7.72224 11.4387 7.80882L10.2317 10.1105L7.54484 10.4739C7.44359 10.4876 7.34841 10.5279 7.27006 10.5901C7.19171 10.6524 7.13331 10.7341 7.10147 10.8262C7.06962 10.9182 7.0656 11.0169 7.08986 11.111C7.11412 11.2051 7.16569 11.2908 7.23874 11.3586L9.17768 13.1575ZM10.6721 11.1001C10.7602 11.0883 10.8439 11.0563 10.916 11.007C10.9881 10.9577 11.0464 10.8925 11.086 10.8171L11.9273 9.21283L12.7602 10.821C12.7994 10.8965 12.8574 10.962 12.9291 11.0116C13.0009 11.0612 13.0844 11.0936 13.1723 11.1059L15.0435 11.3677L13.6859 12.6149C13.622 12.6735 13.5742 12.7459 13.5466 12.8259C13.5189 12.9059 13.5122 12.9911 13.527 13.0741L13.8422 14.8403L12.1701 14.0029C12.0915 13.9635 12.004 13.9428 11.9151 13.9426C11.8262 13.9424 11.7386 13.9627 11.6598 14.0017L9.98314 14.8313L10.3073 13.0661C10.3226 12.9832 10.3163 12.898 10.289 12.8179C10.2618 12.7378 10.2144 12.6652 10.1509 12.6063L8.79967 11.3535L10.6721 11.1001Z" fill="#0F927C"/>
<path d="M25.9349 16.7661C24.7695 16.7674 23.6521 17.2064 22.828 17.9868C22.0039 18.7672 21.5404 19.8254 21.5391 20.929V23.3582C21.5391 24.4622 22.0022 25.521 22.8266 26.3017C23.651 27.0824 24.7691 27.521 25.9349 27.521C27.1008 27.521 28.2189 27.0824 29.0433 26.3017C29.8677 25.521 30.3308 24.4622 30.3308 23.3582V20.929C30.3295 19.8254 29.866 18.7672 29.0419 17.9868C28.2178 17.2064 27.1004 16.7674 25.9349 16.7661ZM29.2343 23.3582C29.2343 24.1868 28.8867 24.9816 28.268 25.5675C27.6492 26.1535 26.81 26.4826 25.9349 26.4826C25.0599 26.4826 24.2207 26.1535 23.6019 25.5675C22.9832 24.9816 22.6355 24.1868 22.6355 23.3582V20.929C22.6355 20.1004 22.9832 19.3056 23.6019 18.7197C24.2207 18.1337 25.0599 17.8046 25.9349 17.8046C26.81 17.8046 27.6492 18.1337 28.268 18.7197C28.8867 19.3056 29.2343 20.1004 29.2343 20.929V23.3582Z" fill="#0F927C"/>
<path d="M39.5773 18.8247C38.5046 18.8259 37.4762 19.2299 36.7177 19.9482C35.9591 20.6666 35.5325 21.6405 35.5312 22.6564V24.8646C35.5312 25.8808 35.9575 26.8554 36.7163 27.574C37.4751 28.2926 38.5042 28.6963 39.5773 28.6963C40.6504 28.6963 41.6796 28.2926 42.4383 27.574C43.1971 26.8554 43.6234 25.8808 43.6234 24.8646V22.6564C43.6222 21.6405 43.1955 20.6666 42.437 19.9482C41.6785 19.2299 40.65 18.8259 39.5773 18.8247ZM42.5269 24.8645C42.5269 25.6054 42.2162 26.3159 41.663 26.8397C41.1099 27.3635 40.3596 27.6578 39.5773 27.6578C38.795 27.6578 38.0448 27.3635 37.4916 26.8397C36.9385 26.3159 36.6277 25.6054 36.6277 24.8645V22.6563C36.6277 21.9155 36.9385 21.205 37.4916 20.6811C38.0448 20.1573 38.795 19.863 39.5773 19.863C40.3596 19.863 41.1099 20.1573 41.663 20.6811C42.2162 21.205 42.5269 21.9155 42.5269 22.6563V24.8645Z" fill="#0F927C"/>
<path d="M44.2403 29.472H42.7662C42.6341 29.4719 42.5075 29.4221 42.4141 29.3337C42.3207 29.2453 42.2682 29.1254 42.268 29.0003C42.268 28.8781 42.2224 28.7598 42.1393 28.6662C42.0562 28.5727 41.9409 28.5099 41.8137 28.489C41.6866 28.468 41.5557 28.4902 41.4441 28.5517C41.3325 28.6132 41.2474 28.71 41.2038 28.825L40.6176 30.3719C40.5408 30.5745 40.3994 30.7496 40.2131 30.8729C40.0268 30.9962 39.8046 31.0617 39.5773 31.0603C39.3499 31.0589 39.1287 30.9907 38.944 30.8651C38.7594 30.7396 38.6204 30.5628 38.5464 30.3592L37.9858 28.819C37.9555 28.7357 37.9034 28.6611 37.8342 28.6022C37.7651 28.5433 37.6813 28.5021 37.5907 28.4823C37.5001 28.4625 37.4057 28.4648 37.3164 28.4891C37.227 28.5134 37.1456 28.5588 37.0799 28.6211L37.0666 28.6335C36.9638 28.7309 36.9061 28.8629 36.9061 29.0006C36.9059 29.1257 36.8534 29.2456 36.76 29.334C36.6666 29.4224 36.54 29.4721 36.4079 29.4723H34.9126C34.6759 29.4723 34.4396 29.4894 34.2056 29.5233C33.315 28.8464 32.207 28.4777 31.0649 28.4784H29.4434C29.2835 28.4784 29.1301 28.4183 29.017 28.3112C28.9039 28.2041 28.8404 28.0588 28.8404 27.9073C28.8403 27.7851 28.7947 27.6668 28.7116 27.5732C28.6285 27.4797 28.5132 27.4169 28.3861 27.396C28.2589 27.375 28.128 27.3972 28.0164 27.4587C27.9049 27.5202 27.8198 27.617 27.7761 27.732L27.1317 29.4337C27.0434 29.6667 26.8808 29.868 26.6666 30.0098C26.4523 30.1516 26.1968 30.2269 25.9354 30.2253C25.674 30.2237 25.4196 30.1453 25.2072 30.0009C24.9949 29.8565 24.8351 29.6533 24.7499 29.4192L24.1333 27.7245C24.1029 27.6412 24.0507 27.5666 23.9816 27.5077C23.9124 27.4488 23.8285 27.4075 23.7379 27.3877C23.6472 27.368 23.5527 27.3704 23.4633 27.3948C23.3739 27.4191 23.2925 27.4646 23.2268 27.527L23.2123 27.5408C23.1098 27.6381 23.0522 27.77 23.0522 27.9074C23.0522 28.0589 22.9887 28.2042 22.8756 28.3113C22.7625 28.4184 22.6091 28.4785 22.4492 28.4785H20.8044C19.6622 28.4778 18.5539 28.8465 17.6632 29.5238C17.4295 29.4897 17.1933 29.4725 16.9568 29.4723H15.4827C15.3506 29.4721 15.224 29.4224 15.1306 29.334C15.0372 29.2456 14.9847 29.1257 14.9845 29.0006C14.9845 28.8783 14.9389 28.76 14.8558 28.6665C14.7727 28.5729 14.6574 28.5102 14.5302 28.4892C14.4031 28.4683 14.2722 28.4905 14.1606 28.552C14.049 28.6134 13.9639 28.7102 13.9203 28.8253L13.3343 30.3719C13.2575 30.5745 13.1162 30.7496 12.9298 30.8729C12.7435 30.9962 12.5213 31.0616 12.294 31.0602C12.0666 31.0589 11.8454 30.9907 11.6607 30.8651C11.4761 30.7395 11.3371 30.5628 11.2631 30.3592L10.7025 28.819C10.6722 28.7357 10.62 28.6611 10.5509 28.6022C10.4818 28.5433 10.3979 28.502 10.3073 28.4822C10.2167 28.4624 10.1222 28.4648 10.0329 28.4891C9.94347 28.5134 9.86208 28.5588 9.79634 28.6211L9.78319 28.6336C9.68045 28.731 9.62274 28.863 9.62274 29.0006C9.62259 29.1256 9.57007 29.2455 9.47669 29.334C9.38332 29.4224 9.25671 29.4721 9.12466 29.4723H7.62915C6.4019 29.4736 5.22532 29.9359 4.35749 30.7577C3.48967 31.5795 3.00148 32.6937 3 33.856V39.929C3 40.0667 3.05776 40.1988 3.16058 40.2962C3.26339 40.3935 3.40284 40.4482 3.54824 40.4482H48.3211C48.4665 40.4482 48.606 40.3935 48.7088 40.2962C48.8116 40.1988 48.8694 40.0667 48.8694 39.929V33.856C48.868 32.6937 48.3799 31.5794 47.512 30.7575C46.6442 29.9357 45.4676 29.4734 44.2403 29.472ZM15.7673 33.2487V39.4098H4.09648V33.856C4.09754 32.969 4.47008 32.1186 5.13235 31.4914C5.79463 30.8642 6.69256 30.5114 7.62915 30.5104H9.12448C9.45841 30.5109 9.78396 30.4115 10.0547 30.2264L10.2263 30.6979C10.3743 31.1047 10.6521 31.458 11.0212 31.7089C11.3903 31.9598 11.8325 32.0961 12.2869 32.0988C12.7412 32.1015 13.1852 31.9706 13.5577 31.7242C13.9301 31.4777 14.2126 31.1278 14.3661 30.7229L14.5539 30.2275C14.8101 30.4022 15.1155 30.5006 15.4311 30.51C15.441 30.51 15.4512 30.5107 15.4613 30.5107H16.6833C16.0865 31.3117 15.7665 32.2683 15.7673 33.2487ZM35.0056 39.4098H16.8638V33.2487C16.865 32.2593 17.2806 31.3107 18.0193 30.6111C18.7581 29.9115 19.7597 29.518 20.8044 29.5168H22.4492C22.8305 29.5173 23.2008 29.3956 23.5 29.1717L23.7131 29.7578C23.8723 30.1951 24.1708 30.5749 24.5676 30.8447C24.9644 31.1144 25.4399 31.2609 25.9283 31.2639C26.4168 31.2668 26.8941 31.1261 27.2945 30.8611C27.6949 30.5961 27.9986 30.22 28.1636 29.7846L28.3952 29.1733C28.6793 29.3853 29.0277 29.5054 29.3891 29.516C29.3994 29.5166 29.4097 29.5168 29.42 29.5168H31.0648C32.1095 29.518 33.1112 29.9115 33.8499 30.6112C34.5887 31.3108 35.0042 32.2594 35.0054 33.2489L35.0056 39.4098ZM47.7729 39.4098H36.1021V33.2487C36.1029 32.2682 35.7828 31.3115 35.1859 30.5104H36.4079C36.7418 30.5108 37.0673 30.4115 37.3381 30.2264L37.5096 30.6979C37.6576 31.1047 37.9354 31.458 38.3045 31.7089C38.6736 31.9598 39.1158 32.0961 39.5702 32.0988C40.0245 32.1015 40.4686 31.9706 40.841 31.7242C41.2135 31.4777 41.4959 31.1278 41.6494 30.7229L41.8372 30.2275C42.0934 30.4022 42.3988 30.5006 42.7144 30.51C42.7243 30.51 42.7345 30.5107 42.7445 30.5107H44.24C45.1766 30.5116 46.0745 30.8644 46.7368 31.4915C47.3992 32.1186 47.7718 32.969 47.7729 33.856V39.4098Z" fill="#0F927C"/>
<path d="M8.24609 22.6564V24.8646C8.24609 25.3678 8.35075 25.8661 8.55409 26.3309C8.75742 26.7958 9.05546 27.2182 9.43117 27.574C9.80689 27.9298 10.2529 28.2121 10.7438 28.4046C11.2347 28.5972 11.7609 28.6963 12.2922 28.6963C12.8235 28.6963 13.3497 28.5972 13.8406 28.4046C14.3315 28.2121 14.7775 27.9298 15.1532 27.574C15.529 27.2182 15.827 26.7958 16.0303 26.3309C16.2337 25.8661 16.3383 25.3678 16.3383 24.8646V22.6564C16.3383 21.6401 15.912 20.6656 15.1532 19.947C14.3944 19.2284 13.3653 18.8247 12.2922 18.8247C11.2191 18.8247 10.19 19.2284 9.43117 19.947C8.67238 20.6656 8.24609 21.6401 8.24609 22.6564ZM15.2418 22.6564V24.8646C15.2418 25.6055 14.9311 26.3159 14.3779 26.8398C13.8247 27.3636 13.0745 27.6579 12.2922 27.6579C11.5099 27.6579 10.7597 27.3636 10.2065 26.8398C9.65334 26.3159 9.34258 25.6055 9.34258 24.8646V22.6564C9.34258 21.9155 9.65334 21.2051 10.2065 20.6812C10.7597 20.1574 11.5099 19.8631 12.2922 19.8631C13.0745 19.8631 13.8247 20.1574 14.3779 20.6812C14.9311 21.2051 15.2418 21.9155 15.2418 22.6564Z" fill="#0F927C"/>
</g>
<defs>
<clipPath id="clip0">
<rect width="46" height="46" fill="white"/>
</clipPath>
</defs>
</svg>
