<svg width="29" height="29" viewBox="0 0 29 29" fill="none" xmlns="http://www.w3.org/2000/svg">
<g clip-path="url(#clip0)">
<path d="M13.5436 14.4674C13.324 14.6867 13.324 15.043 13.5436 15.2629C13.7631 15.4829 14.1185 15.4829 14.3376 15.2629C14.5572 15.043 14.5572 14.6867 14.3376 14.4674C14.1185 14.2474 13.7631 14.2474 13.5436 14.4674Z" fill="#257DB7"/>
<path d="M22.4737 1.67577C21.5102 2.42322 21.2476 2.80848 17.8302 6.19718L15.7815 5.86291L16.7216 4.92095C17.3801 4.26119 17.3803 3.19375 16.7216 2.53398C16.0634 1.87444 14.9974 1.87422 14.3391 2.53398L11.6837 5.19457L2.39706 3.67967C1.79693 3.58209 1.18298 3.78098 0.753507 4.2113C-0.0723289 5.03875 0.0397566 6.40773 0.981845 7.09079L10.2362 13.8058L8.50364 15.542C7.90987 16.1369 7.28496 16.9551 6.64271 17.9769L2.32687 16.7053C1.68989 16.5178 1.00203 16.6934 0.531529 17.1639C-0.26952 17.9665 -0.148442 19.2995 0.782022 19.9452L4.32006 22.3992C3.70414 23.7611 3.32972 24.7459 3.31239 24.7914C3.23386 24.9984 3.28409 25.2325 3.44027 25.389C3.59732 25.5463 3.83114 25.5953 4.03667 25.5171C4.08207 25.5 5.06496 25.1246 6.42424 24.5075L8.87367 28.0526C9.51921 28.9865 10.8495 29.1047 11.6497 28.303C12.1191 27.832 12.2944 27.1428 12.107 26.5046L10.8381 22.1805C11.8585 21.5366 12.6747 20.9104 13.2683 20.3159L15.0011 18.5797L21.7027 27.8522C22.3856 28.7977 23.7519 28.9076 24.5768 28.081C25.0061 27.6509 25.2046 27.0353 25.1074 26.4338L23.5955 17.1296L26.2507 14.4693C26.9091 13.8095 26.9091 12.7414 26.2507 12.0819C25.5924 11.4221 24.527 11.4221 23.8686 12.0819L22.9282 13.0238L22.5948 10.9711C25.9804 7.54352 26.3588 7.2866 27.1052 6.32114C27.1061 6.32004 27.1072 6.31872 27.1081 6.3174C28.84 4.06845 29.2454 1.79708 28.116 0.665023C26.9863 -0.466156 24.7192 -0.0604522 22.4737 1.67577ZM15.1331 3.32979C15.3525 3.10979 15.708 3.10979 15.9276 3.32979C16.1472 3.54978 16.1469 3.90516 15.9276 4.12515L14.4154 5.64006L13.0496 5.4172L15.1331 3.32979ZM1.64032 6.17916C1.25603 5.90071 1.21194 5.34314 1.54776 5.00689C1.72257 4.83151 1.97307 4.75041 2.21698 4.79019L16.8517 7.1776L11.0406 12.9999L1.64032 6.17916ZM1.32556 17.9599C1.50498 17.7804 1.76732 17.7131 2.01014 17.7848L6.04675 18.9742C5.63394 19.6986 5.21741 20.4988 4.80197 21.3649L1.42141 19.0201C1.06673 18.774 1.02023 18.2657 1.32556 17.9599ZM10.8552 27.5078C10.5525 27.8111 10.0445 27.7702 9.7969 27.412L7.4567 24.0246C8.3218 23.6079 9.12066 23.1904 9.84274 22.7776L11.0296 26.8219C11.1011 27.0654 11.0342 27.3283 10.8552 27.5078ZM24.6628 12.8774C24.8822 12.6577 25.2371 12.6575 25.4566 12.8774C25.6762 13.0974 25.676 13.4535 25.4566 13.6735L23.3731 15.7609L23.1509 14.3924L24.6628 12.8774ZM23.9989 26.6142C24.0386 26.8593 23.9576 27.1103 23.7828 27.2854C23.4487 27.6201 22.8918 27.5793 22.6126 27.1924L15.8052 17.774L21.6163 11.9515L23.9989 26.6142ZM12.4742 19.5201C11.8563 20.1395 10.952 20.808 9.78637 21.5075C8.27113 22.4168 6.47798 23.2778 4.86053 23.9662C5.56616 22.3016 6.44179 20.4759 7.36875 18.9404C8.04674 17.8164 8.69578 16.9406 9.29789 16.3376C23.0144 2.62717 22.2018 3.3344 23.0342 2.66739C23.9576 2.60827 24.7705 2.88299 25.3364 3.45C25.9023 4.01702 26.1767 4.83173 26.1177 5.75676C25.4505 6.59278 26.148 5.78642 12.4742 19.5201ZM27.0787 4.27833C26.8993 3.65813 26.5806 3.10518 26.1307 2.65442C25.6808 2.20388 25.1289 1.88433 24.5102 1.70456C25.3228 1.2916 26.6913 0.829194 27.3219 1.46061C27.8199 1.95971 27.6961 3.05837 27.0787 4.27833Z" fill="#257DB7"/>
<path d="M16.7213 11.2846L15.1333 12.8755C14.9139 13.0953 14.9139 13.4516 15.1333 13.6713C15.3526 13.8911 15.7079 13.8909 15.9275 13.6713L17.5154 12.0802C17.7347 11.8606 17.7347 11.5044 17.5154 11.2846C17.296 11.0648 16.9407 11.0648 16.7213 11.2846Z" fill="#257DB7"/>
<path d="M19.8976 8.10172L18.3089 9.69333C18.0897 9.9131 18.0897 10.2694 18.3089 10.4891C18.5284 10.7087 18.8838 10.7087 19.1031 10.4891L20.6916 8.89752C20.911 8.67775 20.911 8.32149 20.6916 8.10172C20.4723 7.88195 20.1169 7.88195 19.8976 8.10172Z" fill="#257DB7"/>
</g>
<defs>
<clipPath id="clip0">
<rect width="28.75" height="28.75" fill="white"/>
</clipPath>
</defs>
</svg>
