<svg width="50" height="43" viewBox="0 0 50 43" fill="none" xmlns="http://www.w3.org/2000/svg">
<g clip-path="url(#clip0)">
<path fill-rule="evenodd" clip-rule="evenodd" d="M41 10H27.3273C26.3909 10 25.5727 10.2898 25 10.737C24.4364 10.2835 23.6091 10 22.6727 10H9C7.29091 10 6 10.8378 6 12.0157V30.0374C6 31.2216 7.29091 32.1728 9 32.1728H22.0273C23.2818 32.1728 24.2727 32.4373 24.2727 33.3948V34.1885H25H25.7273V33.3948C25.7273 32.431 26.7182 32.1728 27.9727 32.1728H41C42.7091 32.1728 44 31.2216 44 30.0374V12.0157C44 10.8378 42.7091 10 41 10ZM24.2727 31.8641C23.8455 31.3728 23.0455 31.1649 22.1091 31.1649H9C8.14545 31.1649 7.54545 30.6295 7.54545 30.0374V12.0157C7.54545 11.4236 8.14545 11.0079 9 11.0079H22.0273C23.1909 11.0079 24.2727 11.8141 24.2727 12.4062V31.8641ZM30.8182 11.0079H36.6364V17.3321L34.5545 16.4188L33.7273 16.0156L32.9 16.4188L30.8182 17.3321V11.0079ZM42.4545 30.0374C42.4545 30.6295 41.8545 31.1649 41 31.1649H27.8909C26.9545 31.1649 26.1545 31.3098 25.7273 31.8641V12.4062C25.7273 11.8141 26.8091 11.0079 27.9727 11.0079H29.3636V19.2597L33.7273 17.2439L38.0909 19.2597V11.0079H41C41.8545 11.0079 42.4545 11.4299 42.4545 12.0157V30.0374Z" fill="#58595B"/>
</g>
<defs>
<clipPath id="clip0">
<rect width="50" height="43" fill="white"/>
</clipPath>
</defs>
</svg>
