<svg width="37" height="37" viewBox="0 0 37 37" fill="none" xmlns="http://www.w3.org/2000/svg">
<path d="M30.8796 26.9435C30.1518 27.6714 30.6742 28.9167 31.6969 28.9167C32.7186 28.9167 33.2429 27.6722 32.5142 26.9435C32.0626 26.4918 31.3314 26.4917 30.8796 26.9435ZM34.5303 24.9275C34.771 25.1682 34.771 25.5585 34.5303 25.7993C34.2896 26.04 33.8994 26.0402 33.6585 25.7993C32.5745 24.7152 30.8196 24.7151 29.7355 25.7993C29.4947 26.0401 29.1044 26.0401 28.8636 25.7993C28.6229 25.5586 28.6229 25.1683 28.8636 24.9275C30.4295 23.3616 32.9641 23.3612 34.5303 24.9275ZM36.3828 23.6914C36.225 23.6914 36.0673 23.6312 35.9469 23.5108C33.5981 21.1618 29.796 21.1617 27.447 23.5108C27.2061 23.7516 26.8159 23.7515 26.5751 23.5108C26.3344 23.2701 26.3344 22.8797 26.5751 22.639C29.406 19.8082 33.9876 19.8079 36.8188 22.639C37.2077 23.0279 36.928 23.6913 36.3828 23.6914ZM31.3622 31.4071C31.3622 33.4465 29.703 35.1058 27.6635 35.1058H7.70576C5.66622 35.1058 4.00703 33.4465 4.00703 31.4071V12.7215L0.952036 14.7035C0.666463 14.8888 0.284723 14.8075 0.0994017 14.5219C-0.08592 14.2363 -0.00462504 13.8545 0.280948 13.6693L14.6471 4.34839C16.4581 3.17343 18.7982 3.17343 20.6092 4.34839L24.1959 6.67551V3.1272C23.8555 3.1272 23.5795 2.85118 23.5795 2.51074C23.5795 2.1703 23.8555 1.89429 24.1959 1.89429H30.7458C31.0862 1.89429 31.3622 2.1703 31.3622 2.51074C31.3622 2.85118 31.0862 3.1272 30.7458 3.1272H30.6687V7.28827C30.6687 7.6287 30.3927 7.90472 30.0522 7.90472C29.7118 7.90472 29.4358 7.6287 29.4358 7.28827V3.1272H25.4288V7.47544L34.9753 13.6693C35.4902 14.0033 35.2496 14.8029 34.6392 14.8029C34.3689 14.8029 35.3437 15.3779 19.9381 5.38265C18.5349 4.4723 16.7216 4.47222 15.3183 5.38265L5.23994 11.9215V31.4071C5.23994 32.7667 6.34609 33.8729 7.70576 33.8729H22.3466V23.6608C22.3466 22.9183 21.7425 22.3144 21.0001 22.3144H14.292C13.5496 22.3144 12.9455 22.9183 12.9455 23.6608V31.33C12.9455 31.6704 12.6695 31.9465 12.3291 31.9465C11.9887 31.9465 11.7126 31.6704 11.7126 31.33V23.6608C11.7126 22.2385 12.8698 21.0814 14.292 21.0814H21.0001C22.4223 21.0814 23.5795 22.2385 23.5795 23.6608V33.8729H27.6635C29.0231 33.8729 30.1293 32.7667 30.1293 31.4071C30.1293 31.0666 30.4053 30.7906 30.7458 30.7906C31.0862 30.7906 31.3622 31.0666 31.3622 31.4071ZM30.7458 14.9169C31.0862 14.9169 31.3622 15.1929 31.3622 15.5333V18.0377C31.3622 18.3781 31.0862 18.6542 30.7458 18.6542C30.4053 18.6542 30.1293 18.3781 30.1293 18.0377V15.5333C30.1293 15.1929 30.4053 14.9169 30.7458 14.9169Z" fill="#0F927C"/>
</svg>
