<svg width="45" height="43" viewBox="0 0 45 43" fill="none" xmlns="http://www.w3.org/2000/svg">
<g clip-path="url(#clip0)">
<path d="M43.2698 16.8074H42.3758V13.4847C42.3758 11.5204 40.7777 9.92236 38.8135 9.92236H25.9031C24.7063 9.92236 23.6463 10.5162 23 11.4241C22.3537 10.5162 21.2937 9.92236 20.0969 9.92236H11.9862C11.6221 9.92236 11.327 10.2175 11.327 10.5815C11.327 10.9456 11.6221 11.2407 11.9862 11.2407H20.0969C21.3342 11.2407 22.3408 12.2473 22.3408 13.4847V20.0773C22.327 20.0641 22.3124 20.0517 22.2985 20.0386C21.5171 19.31 20.4581 18.8901 19.3892 18.8901H8.40919C8.35109 18.005 7.74772 17.2266 6.91514 16.9315C6.68056 16.8483 6.43253 16.8074 6.18371 16.8074H4.94261V13.4847C4.94261 12.2473 5.94922 11.2407 7.18654 11.2407H9.34944C9.71349 11.2407 10.0086 10.9456 10.0086 10.5815C10.0086 10.2175 9.71349 9.92236 9.34944 9.92236H7.18654C5.22228 9.92236 3.62425 11.5204 3.62425 13.4847V16.8074H2.73022C1.50046 16.8074 0.5 17.808 0.5 19.0376V25.9204C0.5 28.4813 2.58354 30.5649 5.14449 30.5649H5.47575C5.47575 30.5649 4.75399 32.5062 4.75347 32.5077C4.29811 33.7324 5.23537 35.0777 6.53984 35.0777H7.60033C8.19395 35.0777 8.76216 34.7951 9.12031 34.3216L11.9619 30.5649H34.0383L36.8799 34.3217C37.238 34.7951 37.8062 35.0777 38.3998 35.0777C38.3998 35.0777 39.4595 35.0777 39.4602 35.0777C40.7662 35.0777 41.7018 33.7321 41.2465 32.5077L40.5242 30.5649H40.8555C43.4165 30.5649 45.5 28.4813 45.5 25.9204V19.0376C45.5 17.808 44.4995 16.8074 43.2698 16.8074ZM23.6592 13.4848C23.6592 12.2474 24.6658 11.2408 25.9031 11.2408H38.8135C40.0508 11.2408 41.0574 12.2474 41.0574 13.4847V16.8075C41.0574 16.8075 39.8166 16.8075 39.8162 16.8075C38.9398 16.8075 38.099 17.37 37.759 18.177C37.6638 18.4029 37.6068 18.6457 37.5908 18.8903C37.5908 18.8903 26.6112 18.8903 26.6108 18.8903C25.5254 18.8903 24.4435 19.327 23.6592 20.0775V13.4848ZM8.41402 20.2086H19.3892C21.0167 20.2086 22.3408 21.5327 22.3408 23.1603V24.0976H8.41402V20.2086ZM8.06888 33.5263C7.95849 33.6723 7.78323 33.7594 7.60024 33.7594C7.60024 33.7594 6.54345 33.7594 6.53976 33.7594C6.13616 33.7594 5.8485 33.3453 5.98912 32.9672L6.88227 30.5649H10.3088L8.06888 33.5263ZM39.4602 33.7593H38.3998C38.2168 33.7593 38.0416 33.6722 37.9312 33.5263L35.6912 30.5649H39.1177C39.1177 30.5649 40.0078 32.9588 40.0109 32.9671C40.1518 33.3461 39.8621 33.7593 39.4602 33.7593ZM40.8555 29.2465H5.14449C3.31048 29.2466 1.81836 27.7544 1.81836 25.9204V19.0376C1.81836 18.5348 2.2274 18.1257 2.73022 18.1257H6.18371C6.68653 18.1257 7.09558 18.5348 7.09558 19.0376V24.7567C7.09558 25.1208 7.39071 25.4159 7.75476 25.4159H31.9666C32.3306 25.4159 32.6258 25.1208 32.6258 24.7567C32.6258 24.3927 32.3306 24.0975 31.9666 24.0975H23.6592V23.1602C23.6592 21.5326 24.9833 20.2086 26.6108 20.2086H37.586V24.0976H34.6033C34.2393 24.0976 33.9441 24.3928 33.9441 24.7568C33.9441 25.1208 34.2393 25.416 34.6033 25.416H38.2452C38.6092 25.416 38.9043 25.1208 38.9043 24.7568V19.0377C38.9043 18.5349 39.3134 18.1258 39.8162 18.1258H43.2697C43.7725 18.1258 44.1816 18.5349 44.1816 19.0377V25.9204H44.1816C44.1816 27.7544 42.6895 29.2465 40.8555 29.2465Z" fill="#27A2F8"/>
</g>
<defs>
<clipPath id="clip0">
<rect width="45" height="45" fill="white" transform="translate(0.5)"/>
</clipPath>
</defs>
</svg>
