<svg width="46" height="46" viewBox="0 0 46 46" fill="none" xmlns="http://www.w3.org/2000/svg">
<path d="M42.8193 18.4338H41.9452V15.1849C41.9452 13.2643 40.3827 11.7018 38.462 11.7018H25.8386C24.6684 11.7018 23.6319 12.2825 23 13.1701C22.3681 12.2824 21.3316 11.7018 20.1614 11.7018H12.2309C11.875 11.7018 11.5864 11.9904 11.5864 12.3463C11.5864 12.7023 11.875 12.9908 12.2309 12.9908H20.1614C21.3712 12.9908 22.3555 13.9751 22.3555 15.1849V21.6311C22.342 21.6181 22.3277 21.606 22.314 21.5932C21.5501 20.8809 20.5146 20.4702 19.4694 20.4702H8.73343C8.67662 19.6049 8.08666 18.8437 7.27258 18.5551C7.04321 18.4738 6.8007 18.4338 6.55741 18.4338H5.34388V15.1849C5.34388 13.9751 6.32813 12.9908 7.53795 12.9908H9.65279C10.0087 12.9908 10.2973 12.7023 10.2973 12.3463C10.2973 11.9904 10.0087 11.7018 9.65279 11.7018H7.53795C5.61734 11.7018 4.05482 13.2643 4.05482 15.1849V18.4338H3.18066C1.97823 18.4338 1 19.4122 1 20.6144V27.3443C1 29.8483 3.03723 31.8856 5.54128 31.8856H5.86518C5.86518 31.8856 5.15946 33.7838 5.15895 33.7852C4.7137 34.9827 5.63014 36.2981 6.90563 36.2981H7.94255C8.52297 36.2981 9.07855 36.0218 9.42875 35.5588L12.2072 31.8856H33.793L36.5714 35.5589C36.9216 36.0217 37.4772 36.2981 38.0575 36.2981C38.0575 36.2981 39.0938 36.2981 39.0944 36.2981C40.3714 36.2981 41.2862 34.9824 40.8411 33.7852L40.1347 31.8856H40.4587C42.9628 31.8856 45 29.8483 45 27.3443V20.6144C45 19.4122 44.0218 18.4338 42.8193 18.4338ZM23.6445 15.1851C23.6445 13.9752 24.6288 12.9909 25.8386 12.9909H38.462C39.6719 12.9909 40.6561 13.9752 40.6561 15.185V18.4339C40.6561 18.4339 39.4429 18.4339 39.4425 18.4339C38.5855 18.4339 37.7635 18.9839 37.4311 19.7729C37.338 19.9939 37.2822 20.2313 37.2666 20.4704C37.2666 20.4704 26.5309 20.4704 26.5306 20.4704C25.4692 20.4704 24.4114 20.8974 23.6445 21.6313V15.1851ZM8.73816 21.7594H19.4694C21.0608 21.7595 22.3555 23.0541 22.3555 24.6455V25.562H8.73816V21.7594ZM8.40068 34.7812C8.29274 34.9239 8.12138 35.0091 7.94246 35.0091C7.94246 35.0091 6.90915 35.0091 6.90554 35.0091C6.51091 35.0091 6.22964 34.6042 6.36714 34.2345L7.24044 31.8856H10.5908L8.40068 34.7812ZM39.0944 35.009H38.0575C37.8786 35.009 37.7073 34.9238 37.5994 34.7812L35.4092 31.8856H38.7596C38.7596 31.8856 39.6299 34.2263 39.6329 34.2344C39.7706 34.605 39.4874 35.009 39.0944 35.009ZM40.4587 30.5965H5.54128C3.74802 30.5966 2.28906 29.1376 2.28906 27.3443V20.6144C2.28906 20.1228 2.68902 19.7228 3.18066 19.7228H6.55741C7.04905 19.7228 7.44901 20.1228 7.44901 20.6144V26.2065C7.44901 26.5624 7.73759 26.851 8.09354 26.851H31.7673C32.1233 26.851 32.4119 26.5624 32.4119 26.2065C32.4119 25.8505 32.1233 25.562 31.7673 25.562H23.6445V24.6454C23.6445 23.054 24.9392 21.7594 26.5306 21.7594H37.2618V25.562H34.3455C33.9895 25.562 33.7009 25.8506 33.7009 26.2066C33.7009 26.5625 33.9895 26.8511 34.3455 26.8511H37.9064C38.2623 26.8511 38.5509 26.5625 38.5509 26.2066V20.6145C38.5509 20.1229 38.9509 19.7229 39.4425 19.7229H42.8192C43.3109 19.7229 43.7109 20.1229 43.7109 20.6145V27.3443H43.7109C43.7109 29.1376 42.252 30.5965 40.4587 30.5965Z" fill="#7AD7FF"/>
</svg>
