<svg width="46" height="46" viewBox="0 0 46 46" fill="none" xmlns="http://www.w3.org/2000/svg">
<path d="M44.5625 30.9062H43.8438V25.1562C43.8428 24.3941 43.5395 23.6634 43.0006 23.1244C42.4616 22.5855 41.7309 22.2822 40.9688 22.2812V10.0625C40.9678 9.30031 40.6645 8.56962 40.1256 8.03067C39.5866 7.49172 38.8559 7.1885 38.0938 7.1875H7.90625C7.14406 7.1885 6.41337 7.49172 5.87442 8.03067C5.33547 8.56962 5.03225 9.30031 5.03125 10.0625V22.2812C4.26906 22.2822 3.53837 22.5855 2.99942 23.1244C2.46047 23.6634 2.15725 24.3941 2.15625 25.1562V30.9062H1.4375C1.24688 30.9062 1.06406 30.982 0.929267 31.1168C0.794475 31.2516 0.71875 31.4344 0.71875 31.625V34.5C0.71875 34.6906 0.794475 34.8734 0.929267 35.0082C1.06406 35.143 1.24688 35.2188 1.4375 35.2188H2.15625V38.0938C2.15625 38.2844 2.23198 38.4672 2.36677 38.602C2.50156 38.7368 2.68438 38.8125 2.875 38.8125H5.03125C5.19737 38.8126 5.35837 38.755 5.48681 38.6497C5.61526 38.5444 5.70319 38.3977 5.73562 38.2348L6.33937 35.2188H39.6606L40.2644 38.2348C40.2968 38.3977 40.3847 38.5444 40.5132 38.6497C40.6416 38.755 40.8026 38.8126 40.9688 38.8125H43.125C43.3156 38.8125 43.4984 38.7368 43.6332 38.602C43.768 38.4672 43.8438 38.2844 43.8438 38.0938V35.2188H44.5625C44.7531 35.2188 44.9359 35.143 45.0707 35.0082C45.2055 34.8734 45.2812 34.6906 45.2812 34.5V31.625C45.2812 31.4344 45.2055 31.2516 45.0707 31.1168C44.9359 30.982 44.7531 30.9062 44.5625 30.9062ZM6.46875 10.0625C6.46925 9.6814 6.62086 9.31606 6.89034 9.04659C7.15981 8.77711 7.52515 8.6255 7.90625 8.625H38.0938C38.4748 8.6255 38.8402 8.77711 39.1097 9.04659C39.3791 9.31606 39.5308 9.6814 39.5312 10.0625V22.2812H38.0938V19.4062C38.0928 18.6441 37.7895 17.9134 37.2506 17.3744C36.7116 16.8355 35.9809 16.5322 35.2188 16.5312H26.5938C25.8316 16.5322 25.1009 16.8355 24.5619 17.3744C24.023 17.9134 23.7197 18.6441 23.7188 19.4062V22.2812H22.2812V19.4062C22.2803 18.6441 21.977 17.9134 21.4381 17.3744C20.8991 16.8355 20.1684 16.5322 19.4062 16.5312H10.7812C10.0191 16.5322 9.28837 16.8355 8.74942 17.3744C8.21047 17.9134 7.90725 18.6441 7.90625 19.4062V22.2812H6.46875V10.0625ZM36.6562 19.4062V22.2812H25.1562V19.4062C25.1567 19.0252 25.3084 18.6598 25.5778 18.3903C25.8473 18.1209 26.2127 17.9692 26.5938 17.9688H35.2188C35.5998 17.9692 35.9652 18.1209 36.2347 18.3903C36.5041 18.6598 36.6558 19.0252 36.6562 19.4062ZM20.8438 19.4062V22.2812H9.34375V19.4062C9.34425 19.0252 9.49586 18.6598 9.76534 18.3903C10.0348 18.1209 10.4002 17.9692 10.7812 17.9688H19.4062C19.7873 17.9692 20.1527 18.1209 20.4222 18.3903C20.6916 18.6598 20.8433 19.0252 20.8438 19.4062ZM3.59375 25.1562C3.59425 24.7752 3.74586 24.4098 4.01534 24.1403C4.28481 23.8709 4.65015 23.7192 5.03125 23.7188H40.9688C41.3498 23.7192 41.7152 23.8709 41.9847 24.1403C42.2541 24.4098 42.4058 24.7752 42.4062 25.1562V30.9062H3.59375V25.1562ZM4.44187 37.375H3.59375V35.2188H4.87313L4.44187 37.375ZM42.4062 37.375H41.5581L41.1269 35.2188H42.4062V37.375ZM43.8438 33.7812H2.15625V32.3438H43.8438V33.7812Z" fill="#0F927C"/>
</svg>
